<?xml version="1.0" standalone="no"?>
<!DOCTYPE svg PUBLIC "-//W3C//DTD SVG 20010904//EN"
 "http://www.w3.org/TR/2001/REC-SVG-20010904/DTD/svg10.dtd">
<svg version="1.0" xmlns="http://www.w3.org/2000/svg"
 width="1096.000000pt" height="1096.000000pt" viewBox="0 0 1096.000000 1096.000000"
 preserveAspectRatio="xMidYMid meet">
<metadata>
Created by potrace 1.14, written by Peter Selinger 2001-2017
</metadata>
<g transform="translate(0.000000,1096.000000) scale(0.100000,-0.100000)"
fill="#000000" stroke="none">
<path d="M763 8291 c-4 -17 -8 -19 -14 -9 -7 10 -9 9 -9 -4 0 -10 1 -19 2 -20
1 -2 -4 -13 -11 -25 -10 -20 -9 -22 5 -16 11 4 15 2 11 -4 -12 -20 -16 -83 -5
-83 5 0 8 -6 5 -12 -20 -50 -20 -51 -6 -43 11 6 11 5 2 -5 -6 -7 -9 -19 -6
-28 4 -9 2 -13 -4 -9 -5 3 -10 0 -10 -7 0 -8 7 -12 15 -8 11 4 11 -1 -3 -22
-16 -24 -16 -26 -1 -20 14 5 15 2 8 -17 -5 -13 -8 -32 -7 -41 2 -10 -2 -18 -8
-18 -6 0 -3 -6 8 -13 13 -10 15 -16 6 -21 -9 -6 -9 -11 1 -24 11 -14 10 -15
-7 -8 -15 5 -17 4 -8 -5 6 -6 9 -18 6 -27 -5 -11 -3 -13 8 -7 11 7 12 6 3 -6
-6 -8 -10 -22 -9 -31 2 -10 -2 -18 -8 -18 -6 0 -3 -6 8 -13 13 -10 15 -16 6
-21 -9 -6 -9 -11 1 -24 11 -14 10 -15 -7 -8 -15 5 -17 4 -8 -5 6 -6 9 -18 6
-27 -5 -11 -3 -13 8 -7 12 8 12 6 0 -8 -7 -9 -10 -17 -7 -17 4 0 2 -9 -4 -20
-9 -16 -8 -19 6 -13 11 4 15 2 11 -4 -12 -20 -16 -83 -5 -83 5 0 7 -7 4 -15
-3 -8 -9 -22 -13 -32 -5 -12 -3 -14 8 -8 11 6 11 5 2 -5 -6 -7 -9 -19 -6 -28
4 -9 2 -13 -4 -9 -5 3 -10 0 -10 -7 0 -8 7 -12 15 -8 11 4 11 -1 -3 -22 -16
-24 -16 -26 -1 -20 14 5 15 2 8 -17 -5 -13 -8 -32 -7 -41 2 -10 -2 -18 -8 -18
-6 0 -3 -6 8 -13 13 -10 15 -16 6 -21 -9 -6 -9 -11 1 -24 11 -14 10 -15 -7 -8
-15 5 -17 4 -8 -5 6 -6 9 -18 6 -27 -5 -11 -3 -13 7 -7 9 6 11 4 5 -6 -13 -20
-15 -59 -3 -59 6 0 7 -8 3 -17 -4 -10 -10 -24 -13 -32 -4 -10 -1 -12 9 -6 11
6 11 5 2 -5 -6 -7 -9 -19 -6 -28 4 -9 2 -13 -4 -9 -5 3 -10 0 -10 -7 0 -8 7
-12 15 -9 12 5 12 2 2 -17 -9 -18 -9 -24 0 -30 9 -6 9 -13 1 -28 -14 -27 -14
-35 2 -26 9 5 9 4 0 -6 -6 -7 -9 -19 -6 -28 4 -9 2 -13 -4 -9 -5 3 -10 0 -10
-7 0 -8 7 -12 15 -9 12 5 12 2 2 -17 -9 -18 -9 -24 0 -30 9 -6 9 -13 1 -28
-14 -27 -14 -35 2 -26 9 5 9 4 0 -6 -6 -7 -9 -19 -6 -28 4 -9 2 -13 -4 -9 -5
3 -10 0 -10 -7 0 -8 7 -12 15 -9 12 5 12 2 2 -17 -9 -18 -9 -24 0 -30 9 -6 9
-13 1 -28 -14 -27 -14 -35 2 -26 9 5 9 4 0 -6 -6 -7 -9 -19 -6 -28 4 -9 2 -13
-4 -9 -5 3 -10 0 -10 -7 0 -8 7 -12 15 -8 11 4 11 -1 -3 -22 -17 -25 -17 -26
0 -19 12 4 16 3 12 -4 -12 -20 -16 -83 -5 -83 5 0 7 -7 4 -15 -3 -8 -9 -22
-13 -32 -5 -12 -3 -14 8 -8 11 6 11 5 2 -5 -6 -7 -9 -19 -6 -28 4 -9 2 -13 -4
-9 -5 3 -10 0 -10 -7 0 -8 7 -12 15 -8 11 4 11 -1 -3 -22 -16 -24 -16 -26 -1
-20 14 5 15 2 8 -17 -5 -13 -8 -32 -7 -41 2 -10 -2 -18 -8 -18 -6 0 -3 -6 8
-13 13 -10 15 -16 6 -21 -9 -6 -9 -11 1 -24 11 -14 10 -15 -7 -8 -15 5 -17 4
-8 -5 6 -6 9 -18 6 -27 -5 -11 -3 -13 8 -7 12 8 12 6 0 -8 -7 -9 -10 -17 -7
-17 4 0 2 -9 -4 -20 -9 -16 -8 -19 6 -13 11 4 15 2 11 -4 -12 -20 -16 -83 -5
-83 5 0 7 -7 4 -15 -3 -8 -9 -22 -13 -32 -5 -12 -3 -14 8 -8 11 6 11 5 2 -5
-6 -7 -9 -19 -6 -28 4 -9 2 -13 -4 -9 -5 3 -10 0 -10 -7 0 -8 7 -12 15 -8 11
4 11 -1 -3 -22 -16 -24 -16 -26 -1 -20 14 5 15 2 8 -17 -5 -13 -8 -32 -7 -41
2 -10 -2 -18 -8 -18 -6 0 -3 -6 8 -13 13 -10 15 -16 6 -21 -9 -6 -9 -11 1 -24
11 -14 10 -15 -7 -8 -15 5 -17 4 -8 -5 6 -6 9 -18 6 -27 -5 -11 -3 -13 8 -7
12 8 12 6 0 -8 -7 -9 -10 -17 -7 -17 4 0 2 -9 -4 -20 -9 -16 -8 -19 6 -13 11
4 15 2 11 -4 -12 -20 -16 -83 -5 -83 5 0 7 -7 4 -15 -3 -8 -9 -22 -13 -32 -5
-12 -3 -14 8 -8 11 6 11 5 2 -5 -6 -7 -9 -19 -6 -28 4 -9 2 -13 -4 -9 -5 3
-10 0 -10 -7 0 -8 7 -12 15 -8 11 4 11 -1 -3 -22 -17 -25 -17 -26 0 -19 12 4
16 3 12 -4 -12 -20 -16 -83 -5 -83 5 0 7 -7 4 -15 -3 -8 -9 -22 -13 -32 -5
-12 -3 -14 8 -8 11 6 11 5 2 -5 -6 -7 -9 -19 -6 -28 4 -9 2 -13 -4 -9 -5 3
-10 0 -10 -7 0 -8 7 -12 15 -9 12 5 12 2 2 -17 -9 -18 -9 -24 0 -30 9 -6 9
-13 1 -28 -14 -27 -14 -35 1 -26 10 5 10 4 1 -6 -6 -7 -9 -19 -6 -28 4 -9 2
-13 -4 -9 -5 3 -10 0 -10 -7 0 -8 7 -12 15 -9 12 5 12 2 2 -17 -9 -18 -9 -24
0 -30 9 -6 9 -13 1 -28 -14 -27 -14 -35 2 -26 9 5 9 4 0 -6 -6 -7 -9 -19 -6
-28 4 -9 2 -13 -4 -9 -5 3 -10 0 -10 -7 0 -8 7 -12 15 -9 12 5 12 2 2 -17 -9
-18 -9 -24 0 -30 9 -6 9 -13 1 -28 -14 -27 -14 -35 2 -26 9 5 9 4 0 -6 -6 -7
-9 -19 -6 -28 4 -9 2 -13 -4 -9 -5 3 -10 0 -10 -7 0 -9 7 -12 16 -8 13 5 14 3
4 -10 -7 -8 -10 -18 -6 -21 3 -4 0 -7 -7 -7 -9 0 -8 -5 5 -13 13 -10 15 -16 6
-21 -9 -6 -9 -11 1 -24 11 -14 10 -15 -7 -8 -15 5 -17 4 -8 -5 6 -6 9 -18 6
-27 -5 -11 -3 -13 8 -7 12 8 12 6 0 -8 -7 -9 -10 -17 -7 -17 4 0 2 -9 -4 -20
-9 -16 -8 -19 6 -13 11 4 15 2 11 -4 -12 -20 -16 -83 -5 -83 5 0 7 -7 4 -15
-3 -8 -9 -22 -13 -32 -5 -12 -3 -14 8 -8 11 6 11 5 2 -5 -6 -7 -9 -19 -6 -28
4 -9 2 -13 -4 -9 -5 3 -10 0 -10 -7 0 -8 7 -12 15 -8 11 4 11 -1 -3 -22 -16
-24 -16 -26 -1 -20 14 5 15 2 8 -17 -5 -13 -8 -32 -7 -41 2 -10 -2 -18 -8 -18
-6 0 -3 -6 8 -13 13 -10 15 -16 6 -21 -9 -6 -9 -11 1 -24 11 -14 10 -15 -7 -8
-15 5 -17 4 -8 -5 6 -6 9 -18 6 -27 -5 -11 -3 -13 8 -7 11 7 12 6 3 -6 -6 -8
-10 -22 -9 -31 2 -10 -2 -18 -8 -18 -6 0 -3 -6 8 -13 13 -10 15 -16 6 -21 -9
-6 -9 -11 1 -24 11 -14 10 -15 -7 -8 -15 5 -17 4 -8 -5 6 -6 9 -18 6 -27 -5
-11 -3 -13 8 -7 12 8 12 6 0 -8 -7 -9 -10 -17 -7 -17 4 0 2 -9 -4 -20 -9 -16
-8 -19 6 -13 11 4 15 2 11 -4 -12 -20 -16 -83 -5 -83 5 0 7 -7 4 -15 -3 -8 -9
-22 -13 -32 -5 -12 -3 -14 8 -8 11 6 11 5 2 -5 -6 -7 -9 -19 -6 -28 4 -9 2
-13 -4 -9 -5 3 -10 0 -10 -7 0 -8 7 -12 15 -8 11 4 11 -1 -3 -22 -16 -24 -16
-26 -1 -20 14 5 15 2 8 -17 -5 -13 -8 -32 -7 -41 2 -10 -2 -18 -8 -18 -6 0 -3
-6 8 -13 13 -10 15 -16 6 -21 -9 -6 -9 -11 1 -24 11 -14 10 -15 -7 -8 -15 5
-17 4 -8 -5 6 -6 9 -18 6 -27 -5 -11 -3 -13 7 -7 9 6 11 4 5 -6 -13 -20 -15
-59 -3 -59 5 0 7 -7 4 -15 -3 -8 -9 -22 -13 -32 -5 -12 -3 -14 8 -8 11 6 11 5
2 -5 -6 -7 -9 -19 -6 -28 4 -9 2 -13 -4 -9 -5 3 -10 0 -10 -7 0 -8 7 -12 15
-9 12 5 12 2 2 -17 -9 -18 -9 -24 0 -30 9 -6 9 -13 1 -28 -14 -27 -14 -35 2
-26 9 5 9 4 0 -6 -6 -7 -9 -19 -6 -28 4 -9 2 -13 -4 -9 -5 3 -10 0 -10 -7 0
-8 7 -12 15 -9 12 5 12 2 2 -17 -9 -18 -9 -24 0 -30 9 -6 9 -13 1 -28 -14 -27
-14 -35 1 -26 10 5 10 4 1 -6 -6 -7 -9 -19 -6 -28 4 -9 2 -13 -4 -9 -5 3 -10
0 -10 -7 0 -8 7 -12 15 -9 12 5 12 2 2 -17 -10 -18 -9 -24 1 -30 10 -7 9 -14
-4 -34 -16 -24 -16 -25 0 -19 14 5 15 3 6 -7 -18 -20 5 -60 34 -60 17 0 22 4
17 13 -5 8 -3 8 9 -2 9 -7 14 -18 11 -25 -3 -6 0 -4 8 4 16 19 40 19 64 0 17
-14 18 -14 6 2 -12 14 -10 16 9 11 17 -5 20 -3 14 8 -5 8 4 3 19 -11 16 -15
25 -18 21 -9 -8 20 26 19 52 -2 16 -13 17 -12 5 3 -12 14 -10 16 9 11 17 -5
20 -3 14 8 -5 8 4 3 19 -11 16 -15 25 -18 21 -9 -8 20 26 19 52 -2 16 -13 17
-12 5 3 -12 14 -10 16 9 11 17 -5 20 -3 14 8 -5 8 4 3 19 -11 16 -15 25 -18
21 -9 -7 20 26 19 49 0 14 -12 16 -12 10 2 -4 12 -1 14 16 10 13 -4 26 0 32 8
7 11 9 9 5 -8 -4 -19 -3 -20 14 -10 10 6 19 16 20 22 0 5 4 2 8 -9 7 -18 8
-18 26 0 18 19 18 19 13 -3 -5 -19 -4 -20 13 -10 10 6 19 16 20 22 0 5 4 2 8
-9 7 -18 8 -18 26 0 18 19 18 19 13 -3 -5 -19 -4 -20 13 -10 10 6 19 16 20 22
0 5 4 2 8 -9 7 -18 8 -18 26 0 18 19 18 19 13 -3 -5 -19 -4 -20 13 -10 10 6
19 16 20 22 0 5 4 2 8 -9 7 -18 8 -18 26 0 18 19 18 19 13 -3 -5 -19 -4 -20
13 -10 10 6 19 16 20 22 0 5 4 2 8 -9 7 -18 8 -18 26 0 18 19 18 19 13 -3 -5
-19 -4 -20 13 -10 10 6 19 16 20 22 0 5 4 2 8 -9 7 -18 8 -18 26 0 18 19 18
19 13 -3 -5 -19 -4 -20 13 -10 10 6 19 16 20 22 0 5 4 2 8 -9 7 -18 8 -18 26
0 18 19 18 18 13 -4 -6 -20 -4 -22 10 -10 9 7 20 18 24 23 4 6 8 2 8 -8 0 -14
4 -16 17 -8 13 7 23 5 38 -7 18 -16 19 -16 7 0 -12 14 -10 16 9 11 17 -5 20
-3 14 8 -5 8 1 5 13 -5 12 -11 22 -15 22 -9 0 10 35 11 45 1 11 -10 45 4 38
16 -4 6 1 5 10 -3 9 -7 14 -18 11 -25 -3 -6 0 -4 8 4 16 18 54 19 50 1 -1 -7
2 -10 8 -6 6 3 8 10 5 15 -3 4 5 6 17 2 16 -4 19 -2 13 9 -8 12 -6 12 8 0 9
-7 14 -18 11 -25 -3 -6 0 -4 8 4 16 18 54 19 50 1 -1 -7 2 -10 8 -6 6 3 8 10
5 15 -3 4 5 6 17 2 16 -4 19 -2 13 9 -8 12 -6 12 8 0 9 -7 14 -18 11 -25 -3
-6 0 -4 8 4 16 18 54 19 50 1 -1 -7 2 -10 8 -6 6 3 8 10 5 15 -3 4 5 6 17 2
16 -4 19 -2 13 9 -8 12 -6 12 8 0 9 -7 14 -18 11 -25 -3 -6 0 -4 8 4 16 18 54
19 50 1 -1 -7 2 -10 8 -6 6 3 8 10 5 15 -3 4 5 6 17 2 16 -4 19 -2 13 9 -8 12
-6 12 8 0 9 -7 14 -18 11 -25 -3 -6 0 -4 8 4 16 18 54 19 50 1 -1 -7 2 -10 8
-6 6 3 8 10 5 15 -3 4 5 6 17 2 16 -4 19 -2 13 9 -8 12 -6 12 8 0 9 -7 14 -18
11 -25 -3 -6 0 -4 8 4 16 18 54 19 50 1 -1 -7 2 -10 8 -6 6 3 8 10 5 15 -3 4
5 6 17 2 16 -4 19 -2 13 9 -8 12 -6 12 8 0 9 -7 14 -18 11 -25 -3 -6 0 -4 8 4
16 18 54 19 50 1 -1 -7 2 -10 8 -6 6 3 8 10 5 15 -3 4 5 6 17 2 16 -4 19 -2
13 9 -8 12 -6 12 8 0 9 -7 14 -18 11 -25 -3 -6 0 -4 8 4 16 18 54 19 50 1 -1
-7 2 -10 8 -6 6 3 8 10 5 15 -3 4 5 6 17 2 16 -4 19 -2 13 9 -8 12 -6 12 8 0
9 -7 14 -18 11 -25 -3 -6 0 -4 8 4 14 16 46 18 68 5 10 -6 12 -3 7 11 -7 18
-6 18 7 1 13 -17 14 -17 32 0 17 17 17 17 12 -4 -5 -19 -4 -20 13 -10 10 6 19
16 20 22 0 5 4 2 8 -9 7 -18 8 -18 26 0 18 19 18 19 13 -3 -5 -19 -4 -20 13
-10 10 6 19 16 20 22 0 5 4 2 8 -9 7 -18 8 -18 26 0 18 19 18 19 13 -3 -5 -19
-4 -20 13 -10 10 6 19 16 20 22 0 5 4 2 8 -9 7 -18 8 -18 26 0 18 19 18 19 13
-3 -5 -19 -4 -20 13 -10 10 6 19 16 20 22 0 5 4 2 8 -9 7 -18 8 -18 26 0 18
19 18 19 13 -3 -5 -19 -4 -20 13 -10 10 6 19 16 20 22 0 5 4 2 8 -9 7 -18 8
-18 26 0 18 19 18 19 13 -3 -5 -19 -4 -20 13 -10 10 6 19 16 20 22 0 5 4 2 8
-9 7 -18 8 -18 26 0 18 19 18 19 13 -3 -5 -19 -4 -20 13 -10 10 6 19 16 20 22
0 5 4 2 8 -9 7 -18 8 -18 26 0 18 19 18 18 13 -4 -6 -20 -4 -22 10 -10 9 7 20
18 24 23 4 6 8 2 8 -8 0 -14 4 -16 19 -7 16 8 22 6 31 -7 9 -15 11 -15 7 -2
-4 13 -1 15 15 11 16 -4 19 -2 13 9 -5 8 1 5 13 -5 12 -11 22 -15 22 -9 0 10
35 11 45 1 11 -10 45 4 38 16 -3 6 3 2 15 -8 12 -11 22 -15 22 -9 0 10 35 11
45 1 11 -10 45 4 38 16 -3 6 3 2 15 -8 12 -11 22 -15 22 -9 0 10 35 11 45 1
11 -10 45 4 38 16 -3 6 3 2 15 -8 12 -11 22 -15 22 -9 0 10 35 11 45 1 11 -10
45 4 38 16 -3 6 3 2 15 -8 12 -11 22 -15 22 -9 0 10 35 11 45 1 11 -10 45 4
38 16 -3 6 3 2 15 -8 12 -11 22 -15 22 -9 0 14 35 9 57 -8 16 -13 17 -12 5 3
-12 14 -10 16 9 11 17 -5 20 -3 14 8 -5 8 4 3 19 -11 16 -15 25 -18 21 -9 -8
20 26 19 52 -2 16 -13 17 -12 5 3 -12 14 -10 16 9 11 17 -5 20 -3 14 8 -5 8 4
3 19 -11 16 -15 25 -18 21 -9 -8 20 26 19 52 -2 16 -13 17 -12 5 3 -12 14 -10
16 9 11 17 -5 20 -3 14 8 -5 8 4 3 19 -11 16 -15 25 -18 21 -9 -8 20 26 19 52
-2 16 -13 17 -12 5 3 -12 14 -10 16 9 11 17 -5 20 -3 14 8 -5 8 4 3 19 -11 16
-15 25 -18 21 -9 -7 20 26 19 49 0 14 -12 16 -12 11 1 -6 16 20 18 43 4 6 -4
12 -3 12 2 0 9 36 10 45 0 11 -10 45 4 38 16 -3 6 3 2 15 -8 12 -11 22 -15 22
-9 0 14 35 9 57 -8 16 -13 17 -12 5 3 -12 14 -10 16 9 11 17 -5 20 -3 14 8 -5
8 4 3 19 -11 16 -15 25 -18 21 -9 -8 20 26 19 52 -2 16 -13 17 -12 5 3 -12 14
-10 16 9 11 17 -5 20 -3 14 8 -5 8 4 3 19 -11 16 -15 25 -18 21 -9 -8 20 26
19 52 -2 16 -13 17 -12 5 3 -12 14 -10 16 9 11 17 -5 20 -3 14 8 -5 8 4 3 19
-11 16 -15 25 -18 21 -9 -7 20 26 19 49 0 14 -12 16 -11 10 3 -5 12 -2 15 12
9 13 -5 15 -3 9 8 -5 8 4 3 19 -11 20 -18 25 -20 20 -7 -7 20 6 23 24 5 7 -7
12 -8 12 -2 0 11 35 12 45 2 11 -10 45 4 38 16 -3 6 3 2 15 -8 12 -11 22 -15
22 -9 0 10 35 11 45 1 11 -10 45 4 38 16 -3 6 3 2 15 -8 12 -11 22 -15 22 -9
0 10 35 11 45 1 11 -10 45 4 38 16 -3 6 3 2 15 -8 12 -11 22 -15 22 -9 0 10
35 11 45 1 11 -10 45 4 38 16 -3 6 3 2 15 -8 12 -11 22 -15 22 -9 0 11 29 11
48 -1 7 -4 12 -2 12 5 0 8 4 8 15 -1 13 -11 14 -10 9 4 -4 12 0 16 15 16 12 0
21 5 21 11 0 6 -7 8 -16 5 -13 -5 -14 -3 -7 6 5 7 9 20 8 28 -1 8 3 24 8 35
10 19 9 19 -9 5 -18 -15 -18 -14 -1 12 9 15 17 31 17 35 0 4 -5 1 -10 -7 -8
-13 -10 -13 -10 2 0 9 5 20 10 23 6 4 7 12 3 18 -12 20 -12 37 0 37 8 0 7 3
-2 9 -9 6 -10 11 -2 15 6 4 11 13 11 19 0 7 -4 6 -10 -3 -8 -13 -10 -13 -10 2
0 9 5 20 10 23 6 4 7 12 3 18 -12 20 -12 37 0 37 8 0 7 3 -2 9 -9 6 -10 11 -2
15 6 4 11 13 11 19 0 7 -4 6 -10 -3 -8 -13 -10 -13 -10 2 0 9 5 20 10 23 6 4
7 12 3 18 -12 20 -12 37 0 37 8 0 7 3 -2 9 -9 6 -10 11 -2 15 6 4 11 13 11 19
0 7 -4 6 -10 -3 -8 -13 -10 -13 -10 2 0 9 5 20 10 23 6 4 7 12 3 18 -12 20
-12 37 0 37 8 0 7 3 -2 9 -9 6 -10 11 -2 15 6 4 11 13 11 19 0 7 -4 6 -10 -3
-8 -13 -10 -13 -10 2 0 9 5 20 10 23 6 4 7 12 3 18 -12 20 -12 37 0 37 8 0 7
3 -2 9 -9 6 -10 11 -2 15 6 4 11 13 11 19 0 7 -4 6 -10 -3 -8 -13 -10 -13 -10
2 0 9 5 20 10 23 6 4 7 12 3 18 -12 20 -12 37 0 37 8 0 7 3 -2 9 -9 6 -10 11
-2 15 6 4 11 13 11 19 0 7 -4 6 -10 -3 -8 -13 -10 -13 -10 2 0 9 5 20 10 23 6
4 7 12 3 18 -12 20 -12 37 0 37 8 0 7 3 -2 9 -9 6 -10 11 -2 15 6 4 11 13 11
19 0 7 -4 6 -10 -3 -8 -13 -10 -13 -10 2 0 9 5 20 10 23 6 4 7 12 3 18 -12 20
-12 37 0 37 8 0 7 3 -2 9 -9 6 -10 11 -2 15 6 4 11 13 11 19 0 7 -4 6 -10 -3
-8 -13 -10 -13 -10 2 0 9 5 20 10 23 6 4 7 12 3 18 -12 20 -12 37 0 37 8 0 7
3 -2 9 -9 6 -10 11 -2 15 6 4 11 13 11 19 0 7 -4 6 -10 -3 -8 -13 -10 -13 -10
2 0 9 5 20 10 23 6 4 7 12 3 18 -12 20 -12 37 0 37 8 0 7 3 -2 9 -9 6 -10 11
-2 15 6 4 11 13 11 19 0 7 -4 6 -10 -3 -8 -13 -10 -13 -10 2 0 9 5 20 10 23 6
4 7 12 3 18 -12 20 -12 37 0 37 8 0 7 3 -2 9 -9 6 -10 11 -2 15 6 4 11 13 11
19 0 7 -4 6 -10 -3 -8 -13 -10 -13 -10 2 0 9 5 20 10 23 6 4 7 12 3 18 -12 20
-12 37 0 37 8 0 7 3 -2 9 -9 6 -10 11 -2 15 6 4 11 13 11 19 0 7 -4 6 -10 -3
-8 -13 -10 -13 -10 2 0 9 5 20 10 23 6 4 7 12 3 18 -11 17 -10 31 2 39 6 5 5
8 -4 8 -11 0 -11 3 0 17 11 13 11 15 1 9 -9 -5 -13 -3 -11 5 1 8 1 23 0 34 -1
17 -3 18 -11 5 -8 -13 -10 -12 -10 3 0 15 -3 16 -20 7 -16 -9 -22 -8 -27 5 -3
10 -8 13 -12 6 -6 -9 -16 -12 -61 -20 -3 -1 2 -6 10 -11 13 -8 12 -10 -3 -10
-15 0 -16 -3 -7 -20 8 -15 8 -20 -2 -20 -9 0 -9 -3 2 -10 11 -7 11 -10 2 -10
-7 0 -10 -5 -7 -10 4 -6 12 -8 18 -4 7 3 5 0 -3 -8 -16 -13 -18 -46 -6 -67 4
-6 1 -11 -6 -11 -9 0 -9 -3 2 -10 11 -7 11 -10 2 -10 -7 0 -10 -5 -7 -10 4 -6
12 -8 18 -4 7 3 5 0 -3 -8 -15 -13 -19 -46 -6 -66 3 -6 -2 -13 -11 -15 -15 -4
-15 -5 2 -6 17 -1 18 -3 5 -11 -8 -5 -10 -10 -4 -10 8 0 9 -13 4 -40 -5 -27
-4 -40 4 -41 6 0 2 -4 -9 -9 l-20 -9 20 0 c17 -1 17 -3 5 -11 -11 -7 -11 -10
-2 -10 10 0 10 -5 2 -20 -10 -19 -7 -24 15 -21 6 1 3 -4 -5 -11 -15 -12 -18
-83 -5 -97 3 -2 -3 -10 -13 -18 -9 -8 -12 -12 -7 -9 6 2 17 1 25 -5 12 -7 12
-9 -4 -9 -15 0 -16 -3 -6 -15 7 -8 8 -15 3 -15 -5 0 -9 -10 -7 -22 1 -13 3
-33 3 -46 1 -15 5 -21 13 -16 7 4 8 3 4 -4 -4 -7 -15 -12 -24 -12 -15 -1 -15
-2 2 -11 15 -9 16 -13 5 -20 -8 -5 -9 -9 -3 -9 8 0 9 -13 4 -40 -5 -27 -4 -40
4 -41 6 0 2 -4 -9 -9 l-20 -9 20 0 c17 -1 17 -3 5 -11 -8 -5 -10 -10 -5 -10 6
0 10 -20 10 -45 0 -25 -4 -45 -10 -45 -5 0 -3 -5 5 -10 11 -7 11 -10 2 -10 -7
0 -10 -5 -7 -10 4 -6 12 -8 18 -4 7 3 5 0 -3 -8 -16 -13 -18 -46 -6 -67 4 -6
1 -11 -6 -11 -9 0 -9 -3 2 -10 11 -7 11 -10 2 -10 -7 0 -10 -5 -7 -10 4 -6 12
-8 18 -4 7 3 5 0 -3 -8 -15 -13 -19 -46 -6 -66 3 -6 -2 -13 -11 -15 -15 -4
-15 -5 2 -6 17 -1 18 -3 5 -11 -8 -5 -10 -10 -4 -10 8 0 9 -13 4 -40 -5 -27
-4 -40 4 -41 6 0 2 -4 -9 -9 l-20 -9 20 0 c17 -1 17 -3 5 -11 -11 -7 -11 -10
-2 -10 10 0 10 -5 2 -20 -10 -19 -7 -24 15 -21 6 1 3 -4 -5 -11 -19 -16 -18
-57 1 -69 11 -7 9 -9 -6 -9 -17 0 -17 -2 -5 -10 12 -8 12 -10 1 -10 -10 0 -11
-3 -3 -13 8 -10 6 -16 -10 -26 -11 -7 -17 -8 -13 -2 10 18 -7 12 -22 -6 -8
-10 -12 -13 -9 -6 4 6 2 14 -4 18 -5 3 -10 -2 -10 -12 0 -14 -2 -15 -9 -4 -5
7 -13 11 -19 7 -6 -3 -13 0 -15 6 -4 10 -6 10 -6 0 -1 -8 -6 -10 -13 -5 -18
11 -88 11 -88 0 0 -5 -6 -4 -14 2 -10 8 -16 9 -21 1 -3 -5 -11 -10 -16 -10 -6
0 -8 4 -5 8 2 4 -8 8 -24 7 -15 0 -26 -3 -23 -7 2 -5 0 -8 -6 -8 -5 0 -12 6
-14 13 -4 9 -6 8 -6 -2 -1 -11 -4 -11 -18 0 -15 12 -16 12 -9 -5 7 -20 7 -20
-15 0 -12 10 -19 13 -15 7 4 -7 3 -13 -3 -13 -5 0 -12 6 -14 13 -4 9 -6 8 -6
-2 -1 -11 -4 -11 -18 0 -15 12 -16 12 -9 -5 7 -20 7 -20 -15 0 -12 10 -19 13
-15 7 4 -7 3 -13 -3 -13 -5 0 -12 6 -14 13 -4 9 -6 8 -6 -2 -1 -11 -4 -11 -18
0 -15 12 -16 12 -9 -5 7 -20 7 -20 -15 0 -12 10 -19 13 -15 7 4 -7 3 -13 -3
-13 -5 0 -12 6 -14 13 -4 9 -6 8 -6 -2 -1 -11 -4 -11 -18 0 -15 12 -16 12 -10
-5 6 -14 5 -16 -5 -8 -7 6 -16 11 -20 11 -5 1 -9 1 -10 2 -15 6 -88 3 -88 -4
0 -5 -6 -4 -14 2 -10 8 -16 9 -21 1 -3 -6 -12 -7 -18 -3 -17 11 -67 11 -67 0
0 -5 -6 -4 -14 2 -10 8 -16 9 -21 1 -3 -5 -11 -10 -16 -10 -6 0 -8 4 -5 8 2 4
-8 8 -24 7 -15 0 -26 -3 -23 -7 2 -5 0 -8 -6 -8 -5 0 -12 6 -14 13 -4 9 -6 8
-6 -2 -1 -11 -4 -11 -18 0 -15 12 -16 12 -9 -5 7 -20 7 -20 -15 0 -12 10 -19
13 -15 7 4 -7 3 -13 -3 -13 -5 0 -12 6 -14 13 -4 9 -6 8 -6 -2 -1 -11 -4 -11
-18 0 -15 12 -16 12 -10 -5 6 -16 5 -17 -8 -6 -8 7 -15 9 -15 4 0 -5 -5 -2
-10 6 -8 12 -10 12 -10 1 0 -10 -3 -11 -14 -2 -11 9 -18 8 -30 -4 -15 -15 -16
-15 -16 1 0 13 -3 14 -15 4 -12 -10 -15 -10 -15 1 0 12 -2 12 -9 0 -7 -11 -9
-11 -14 0 -4 11 -6 11 -6 1 -1 -8 -6 -10 -13 -5 -23 13 -38 12 -38 -5 0 -13
-3 -12 -15 4 -10 13 -14 14 -15 5 0 -10 -3 -11 -14 -2 -10 8 -16 9 -21 1 -3
-5 -11 -10 -16 -10 -6 0 -8 4 -5 8 2 4 -8 8 -24 7 -15 0 -26 -3 -23 -7 2 -5 0
-8 -6 -8 -5 0 -12 6 -14 13 -4 9 -6 8 -6 -2 -1 -11 -4 -11 -18 0 -15 12 -16
12 -9 -5 7 -20 7 -20 -15 0 -12 10 -19 13 -15 7 4 -7 3 -13 -3 -13 -5 0 -12 6
-14 13 -4 9 -6 8 -6 -2 -1 -11 -4 -11 -18 0 -15 12 -16 12 -10 -4 5 -13 3 -16
-6 -10 -6 4 -15 8 -19 9 -5 1 -9 3 -10 4 -8 7 -88 4 -88 -3 0 -5 -6 -4 -14 2
-10 8 -16 9 -21 1 -3 -6 -12 -7 -18 -3 -17 11 -67 11 -67 0 0 -5 -6 -4 -14 2
-10 8 -16 9 -21 1 -3 -5 -11 -10 -16 -10 -6 0 -8 4 -5 8 2 4 -8 8 -24 7 -15 0
-26 -3 -23 -7 2 -5 0 -8 -6 -8 -5 0 -12 6 -14 13 -4 9 -6 8 -6 -2 -1 -11 -4
-11 -18 0 -15 12 -16 12 -9 -5 7 -20 7 -20 -15 0 -12 10 -19 13 -15 7 4 -7 3
-13 -3 -13 -5 0 -12 6 -14 13 -4 9 -6 8 -6 -2 -1 -11 -4 -11 -18 0 -15 12 -16
12 -10 -5 6 -16 5 -17 -8 -6 -8 7 -15 9 -15 4 0 -5 -5 -2 -10 6 -8 12 -10 12
-10 1 0 -10 -3 -11 -14 -2 -11 9 -18 8 -30 -4 -15 -15 -16 -15 -16 1 0 13 -3
14 -15 4 -12 -10 -15 -10 -15 1 0 12 -2 12 -9 0 -7 -11 -9 -11 -14 0 -4 11 -6
11 -6 1 -1 -8 -6 -10 -13 -5 -23 13 -38 12 -38 -5 0 -13 -3 -12 -15 4 -10 13
-14 14 -15 5 0 -10 -3 -11 -14 -2 -10 8 -16 9 -21 1 -3 -5 -11 -10 -16 -10 -6
0 -8 4 -5 9 4 5 -1 8 -10 7 -8 -1 -20 -9 -25 -17 -7 -11 -9 -10 -9 5 0 15 -3
16 -14 7 -11 -9 -15 -9 -19 1 -4 11 -6 10 -6 0 -1 -8 -6 -10 -13 -5 -22 13
-40 12 -34 -2 3 -9 0 -12 -9 -8 -8 3 -12 10 -8 17 3 6 1 6 -8 -1 -17 -17 -32
-17 -24 -1 4 7 -1 4 -9 -6 -15 -19 -16 -19 -16 -2 0 15 -3 16 -15 6 -12 -10
-15 -10 -15 1 0 11 -2 11 -10 -1 -9 -13 -10 -13 -10 0 0 12 -2 12 -9 1 -6 -9
-10 -10 -16 -2 -5 9 -10 9 -20 1 -10 -8 -14 -7 -18 2 -4 10 -6 10 -6 1 -1 -7
-6 -13 -12 -13 -5 0 -7 6 -4 12 4 7 -1 4 -9 -6 -15 -19 -16 -19 -16 -2 0 15
-3 16 -14 7 -11 -9 -15 -9 -19 1 -4 11 -6 10 -6 0 -1 -8 -6 -10 -13 -5 -22 13
-40 12 -34 -2 3 -9 0 -12 -9 -8 -8 3 -12 10 -8 17 3 6 1 6 -8 -2 -17 -16 -32
-16 -24 1 4 6 -1 3 -9 -7 -15 -19 -16 -19 -16 -2 0 15 -3 16 -15 6 -12 -10
-15 -10 -15 1 0 11 -2 11 -10 -1 -9 -13 -10 -13 -10 0 0 12 -2 12 -9 1 -6 -9
-10 -10 -16 -2 -5 9 -10 9 -20 1 -10 -8 -14 -7 -18 2 -4 10 -6 10 -6 1 -1 -7
-6 -13 -12 -13 -5 0 -7 5 -3 11 5 8 1 8 -14 0 -15 -8 -22 -8 -25 2 -4 9 -6 8
-6 -2 -1 -10 -4 -11 -15 -2 -11 9 -18 8 -30 -4 -15 -15 -16 -15 -16 1 0 13 -3
14 -15 4 -12 -10 -15 -10 -15 1 0 12 -2 12 -9 0 -7 -11 -9 -11 -14 0 -4 11 -6
11 -6 1 -1 -8 -6 -10 -13 -5 -23 13 -38 12 -38 -5 0 -13 -3 -12 -15 4 -10 13
-14 14 -15 5 0 -10 -3 -11 -14 -2 -10 8 -16 9 -21 1 -3 -5 -11 -10 -16 -10 -6
0 -8 4 -5 8 2 4 -8 8 -24 7 -15 0 -26 -3 -23 -7 2 -5 0 -8 -6 -8 -5 0 -12 6
-14 13 -4 9 -6 8 -6 -2 -1 -11 -4 -11 -18 0 -15 12 -16 12 -9 -5 7 -20 7 -20
-15 0 -12 10 -19 13 -15 7 4 -7 3 -13 -3 -13 -5 0 -12 6 -14 13 -4 9 -6 8 -6
-2 -1 -11 -4 -11 -18 0 -15 12 -16 12 -10 -4 5 -13 3 -16 -6 -10 -6 4 -15 8
-19 9 -5 1 -9 3 -10 4 -8 7 -88 4 -88 -3 0 -5 -6 -4 -14 2 -10 8 -16 9 -21 1
-3 -6 -12 -7 -18 -3 -17 11 -67 11 -67 0 0 -5 -6 -4 -14 2 -10 8 -16 9 -21 1
-3 -5 -11 -10 -16 -10 -6 0 -8 4 -5 8 2 4 -8 8 -24 7 -15 0 -26 -3 -23 -7 2
-5 0 -8 -6 -8 -5 0 -12 6 -14 13 -4 9 -6 8 -6 -2 -1 -11 -4 -11 -18 0 -15 12
-16 12 -9 -5 7 -20 7 -20 -15 0 -12 10 -19 13 -15 7 4 -7 3 -13 -3 -13 -5 0
-12 6 -14 13 -4 9 -6 8 -6 -2 -1 -11 -4 -11 -18 0 -15 12 -16 12 -10 -5 6 -16
5 -17 -8 -6 -8 7 -15 9 -15 4 0 -5 -5 -2 -10 6 -8 12 -10 12 -10 1 0 -10 -3
-11 -14 -2 -11 9 -18 8 -30 -4 -15 -15 -16 -15 -16 1 0 13 -3 14 -15 4 -12
-10 -15 -10 -15 1 0 12 -2 12 -9 0 -7 -11 -9 -11 -14 0 -4 11 -6 11 -6 1 -1
-8 -6 -10 -13 -5 -23 13 -38 12 -38 -5 0 -13 -3 -12 -15 4 -10 13 -14 14 -15
5 0 -10 -3 -11 -14 -2 -10 8 -16 9 -21 1 -3 -5 -11 -10 -16 -10 -6 0 -8 4 -5
9 4 5 -1 8 -10 7 -8 -1 -20 -9 -25 -17 -7 -11 -9 -10 -9 5 0 15 -3 16 -14 7
-11 -9 -15 -9 -19 1 -4 11 -6 10 -6 0 -1 -8 -6 -10 -13 -5 -22 13 -40 12 -34
-2 3 -9 0 -12 -9 -8 -8 3 -12 10 -8 17 3 6 1 6 -8 -1 -7 -7 -17 -13 -22 -13
-4 0 -5 6 -2 13 4 6 -1 3 -9 -7 -15 -19 -16 -19 -16 -2 0 15 -3 16 -15 6 -12
-10 -15 -10 -15 1 0 11 -2 11 -10 -1 -9 -13 -10 -13 -10 0 0 12 -2 12 -9 1 -6
-9 -10 -10 -16 -2 -5 9 -10 9 -20 1 -10 -8 -14 -7 -18 2 -4 10 -6 10 -6 1 -1
-7 -6 -13 -12 -13 -5 0 -7 6 -4 13 4 6 -1 3 -9 -7 -15 -19 -16 -19 -16 -2 0
15 -3 16 -14 7 -11 -9 -15 -9 -19 1 -4 11 -6 10 -6 0 -1 -8 -6 -10 -13 -5 -22
13 -40 12 -34 -2 3 -9 0 -12 -9 -8 -8 3 -12 10 -8 17 3 6 1 6 -8 -1 -7 -7 -17
-13 -22 -13 -4 0 -5 6 -2 13 4 6 -1 3 -9 -7 -15 -19 -16 -19 -16 -2 0 15 -3
16 -15 6 -12 -10 -15 -10 -15 1 0 11 -2 11 -10 -1 -9 -13 -10 -13 -10 0 0 12
-2 12 -9 1 -6 -9 -10 -10 -16 -2 -5 9 -10 9 -20 1 -10 -8 -14 -7 -18 2 -4 10
-6 10 -6 1 -1 -7 -6 -13 -12 -13 -5 0 -7 5 -3 11 5 8 1 8 -14 0 -15 -8 -22 -8
-25 2 -4 9 -6 8 -6 -2 -1 -10 -4 -11 -15 -2 -11 9 -18 8 -30 -4 -15 -15 -16
-15 -16 1 0 13 -3 14 -15 4 -12 -10 -15 -10 -15 1 0 12 -2 12 -9 0 -7 -11 -9
-11 -14 0 -4 11 -6 11 -6 1 -1 -8 -6 -10 -13 -5 -23 13 -38 12 -38 -5 0 -13
-3 -12 -15 4 -10 13 -14 14 -15 5 0 -10 -3 -11 -14 -2 -10 8 -16 9 -21 1 -3
-5 -11 -10 -16 -10 -6 0 -8 4 -5 8 3 5 -1 9 -9 9 -8 0 -11 -5 -8 -11 4 -6 0
-5 -9 2 -13 10 -17 10 -21 0 -4 -10 -8 -10 -16 2 -10 13 -11 13 -11 0 0 -13
-1 -13 -10 0 -9 13 -10 13 -10 0 0 -13 -2 -13 -9 -1 -5 8 -7 21 -3 29 4 11 1
13 -9 7 -8 -5 -5 2 5 14 20 22 20 22 0 15 -17 -7 -17 -6 -5 9 11 14 11 17 0
17 -10 0 -11 2 -2 8 8 5 9 13 3 22 -5 9 -5 20 2 28 9 10 8 16 -3 23 -10 6 -11
9 -1 9 9 0 10 5 2 19 -6 12 -6 22 -1 25 10 7 9 31 -2 42 -4 4 -2 13 4 21 9 10
8 13 -2 13 -11 0 -11 2 0 9 12 8 12 12 2 24 -10 13 -9 17 6 26 17 10 17 10 0
11 -14 0 -16 4 -7 19 7 14 6 21 -3 24 -9 4 -9 6 1 6 9 1 10 6 2 20 -6 12 -6
22 -1 25 10 7 9 25 -2 43 -4 6 -2 15 4 19 8 4 7 9 -2 15 -12 7 -12 9 0 9 10 0
11 3 2 13 -6 8 -8 17 -4 21 11 11 12 36 2 36 -6 0 -7 5 -4 10 4 6 12 8 18 4 7
-3 3 2 -7 10 -11 9 -14 16 -8 16 9 0 10 5 2 19 -6 12 -6 22 -1 25 10 7 9 31
-2 42 -4 4 -2 13 4 21 9 10 8 13 -2 13 -11 0 -11 2 0 9 12 8 12 12 2 24 -10
13 -9 17 6 26 17 10 17 10 0 11 -14 0 -16 4 -7 19 7 14 6 21 -3 24 -9 4 -9 6
1 6 9 1 10 6 2 20 -6 12 -6 22 -1 25 10 7 9 25 -2 43 -4 6 -2 15 4 19 8 4 7 9
-2 15 -12 7 -12 9 0 9 10 0 11 3 2 13 -6 8 -8 17 -4 21 11 11 12 36 2 36 -6 0
-6 8 1 19 7 14 7 22 0 26 -8 5 -7 11 1 21 9 11 8 14 -2 14 -12 0 -12 2 0 9 9
6 10 11 2 15 -6 4 -8 13 -4 19 12 19 12 37 2 37 -6 0 -7 5 -4 10 4 6 12 8 18
4 7 -3 3 2 -7 10 -11 9 -14 16 -8 16 9 0 10 5 2 19 -6 12 -6 22 -1 25 10 7 9
31 -2 42 -4 4 -2 13 4 21 9 10 8 13 -2 13 -11 0 -11 2 0 9 12 8 12 12 2 24
-10 13 -9 17 6 26 17 10 17 10 0 11 -14 0 -16 4 -7 19 7 14 6 21 -3 24 -9 4
-9 6 1 6 9 1 10 6 2 20 -6 12 -6 22 -1 25 10 7 9 25 -2 43 -4 6 -2 15 4 19 8
4 7 9 -2 15 -12 7 -12 9 0 9 10 0 11 3 2 13 -6 8 -8 17 -4 21 11 11 12 36 2
36 -6 0 -7 5 -4 10 4 6 12 8 18 4 7 -3 3 2 -7 10 -11 9 -14 16 -8 16 9 0 10 5
2 19 -6 12 -6 22 -1 25 10 7 9 31 -2 42 -4 4 -2 13 4 21 9 10 8 13 -2 13 -11
0 -11 2 0 9 12 8 12 12 2 24 -10 13 -9 17 6 26 17 10 17 10 0 11 -15 0 -16 3
-7 20 8 15 8 20 -2 20 -10 0 -10 2 -1 8 8 5 9 13 3 22 -5 9 -5 20 2 28 9 10 8
16 -3 23 -10 6 -11 9 -1 9 9 0 10 5 2 19 -6 12 -6 22 -1 25 10 7 9 31 -2 42
-4 4 -2 13 4 21 9 10 8 13 -2 13 -11 0 -11 2 0 9 12 8 12 12 2 24 -10 13 -9
17 6 26 17 10 17 10 0 11 -14 0 -16 4 -7 19 7 14 6 21 -3 24 -9 4 -9 6 1 6 9
1 10 6 2 20 -6 12 -6 22 -1 25 5 4 8 14 6 24 -1 9 2 23 8 30 7 9 5 11 -9 6
-16 -6 -17 -5 -6 7 6 7 12 17 12 22 0 4 -6 5 -12 1 -10 -6 -10 -4 0 8 10 13
10 17 0 21 -10 4 -10 6 1 6 11 1 11 4 0 18 -12 15 -12 16 5 10 15 -6 16 -5 8
6 -12 14 -11 34 1 54 6 9 3 11 -10 6 -15 -5 -16 -3 -5 8 6 7 12 17 12 22 0 4
-6 5 -12 1 -10 -6 -10 -4 0 8 10 13 10 17 0 21 -10 4 -10 6 1 6 11 1 11 4 0
18 -12 15 -12 16 5 10 16 -6 17 -5 7 7 -7 8 -10 20 -7 25 4 5 2 13 -4 16 -8 5
-7 11 1 21 9 11 8 14 -2 14 -12 0 -12 2 0 9 9 6 10 11 2 15 -6 4 -8 13 -4 19
12 19 12 37 2 37 -6 0 -7 5 -4 10 4 6 12 8 18 4 7 -3 3 2 -7 10 -11 9 -14 16
-8 16 9 0 10 5 2 19 -6 12 -6 22 -1 25 10 7 9 31 -2 42 -4 4 -2 13 4 21 9 10
8 13 -2 13 -11 0 -11 2 0 9 12 8 12 12 2 24 -10 13 -9 17 6 26 17 10 17 10 0
11 -14 0 -16 4 -7 19 7 14 6 21 -3 24 -9 4 -9 6 1 6 9 1 10 6 2 20 -6 12 -6
22 -1 25 10 7 9 25 -2 43 -4 6 -2 15 4 19 8 4 7 9 -2 15 -12 7 -12 9 0 9 10 0
11 3 2 13 -6 8 -8 17 -4 21 11 11 12 36 2 36 -6 0 -5 8 1 20 6 11 8 20 4 20
-3 0 -1 7 6 15 11 13 10 14 -6 9 -16 -6 -17 -5 -6 7 6 7 12 17 12 22 0 4 -6 5
-12 1 -10 -6 -10 -4 0 8 10 13 10 17 0 21 -10 4 -10 6 1 6 11 1 11 4 0 18 -12
15 -12 16 5 10 15 -6 16 -5 8 6 -12 14 -11 34 1 54 6 9 3 11 -10 6 -15 -5 -16
-3 -5 8 6 7 12 17 12 22 0 4 -6 5 -12 1 -10 -6 -10 -4 0 8 10 13 10 17 0 21
-10 4 -10 6 1 6 11 1 11 4 0 18 -12 15 -12 16 5 10 16 -6 17 -5 6 8 -7 8 -9
15 -4 15 5 0 2 5 -6 10 -11 7 -11 10 -2 10 9 0 10 5 2 19 -6 12 -6 22 -1 25
10 7 9 31 -2 42 -4 4 -2 13 4 21 9 10 8 13 -2 13 -11 0 -11 2 0 9 12 8 12 12
2 24 -10 13 -9 17 6 26 17 10 17 10 0 11 -15 0 -16 3 -7 20 8 15 8 20 -2 20
-10 0 -10 2 -1 8 8 5 9 13 3 22 -5 9 -5 20 2 28 9 10 8 16 -3 23 -10 6 -11 9
-1 9 9 0 10 5 2 19 -6 12 -6 22 -1 25 10 7 9 31 -2 42 -4 4 -2 13 4 21 9 10 8
13 -2 13 -11 0 -11 2 0 9 12 8 12 12 2 24 -10 13 -9 17 6 26 17 10 17 10 0 11
-14 0 -16 4 -7 19 7 14 6 21 -3 24 -9 4 -9 6 1 6 9 1 10 6 2 20 -6 12 -6 22
-1 25 10 7 9 25 -2 43 -4 6 -2 15 4 19 8 4 7 9 -2 15 -12 7 -12 9 0 9 10 0 11
3 2 13 -6 8 -8 17 -4 21 11 11 12 36 2 36 -6 0 -7 5 -4 10 4 6 12 8 18 4 7 -3
3 2 -7 10 -11 9 -14 16 -8 16 9 0 10 5 2 19 -6 12 -6 22 -1 25 10 7 9 31 -2
42 -4 4 -2 13 4 21 9 10 8 13 -2 13 -11 0 -11 2 0 9 12 8 12 12 2 24 -10 13
-9 17 6 26 17 10 17 10 0 11 -14 0 -16 4 -7 19 7 14 6 21 -3 24 -9 4 -9 6 1 6
9 1 10 6 2 20 -6 12 -6 22 -1 25 10 7 9 25 -2 43 -4 6 -2 15 4 19 8 4 7 9 -2
15 -12 7 -12 9 0 9 10 0 11 3 2 13 -6 8 -8 17 -4 21 11 11 12 36 2 36 -6 0 -6
8 1 19 7 14 7 22 0 26 -8 5 -7 11 1 21 9 11 8 14 -2 14 -12 0 -12 2 0 9 9 6
10 11 2 15 -6 4 -8 13 -4 19 12 19 12 37 2 37 -6 0 -7 5 -4 10 4 6 12 8 18 4
7 -3 3 2 -7 10 -11 9 -14 16 -8 16 9 0 10 5 2 19 -6 12 -6 22 -1 25 10 7 9 31
-2 42 -4 4 -2 13 4 21 9 10 8 13 -2 13 -11 0 -11 2 0 9 11 7 12 13 4 23 -9 10
-5 20 13 43 14 17 22 23 19 15 -4 -11 2 -15 24 -15 16 -1 27 3 25 7 -3 4 -1 8
5 8 5 0 13 -4 16 -10 8 -13 25 -13 25 1 0 5 -5 7 -12 3 -7 -4 -8 -3 -4 4 7 12
31 6 55 -12 11 -8 13 -8 7 2 -5 8 0 12 16 12 13 0 30 -6 37 -12 8 -8 11 -8 8
-2 -4 7 2 14 12 17 14 3 18 1 14 -9 -4 -12 0 -12 22 -4 34 13 38 13 29 -2 -6
-10 -4 -10 8 0 11 9 18 10 23 2 8 -13 25 -13 25 1 0 5 -5 7 -12 3 -7 -4 -8 -3
-4 4 7 12 31 6 55 -12 11 -8 13 -8 7 2 -5 8 0 12 16 12 13 0 30 -6 37 -12 8
-8 11 -8 8 -2 -4 7 2 14 12 17 14 3 18 1 14 -9 -4 -11 1 -12 27 -2 25 8 38 8
51 -1 23 -14 29 -14 29 0 0 5 -5 7 -12 3 -6 -4 -8 -3 -5 3 9 14 58 4 50 -11
-4 -8 -2 -7 7 1 7 6 19 9 28 6 10 -4 13 -2 8 5 -5 8 -2 10 8 6 9 -3 13 -11 9
-18 -4 -6 1 -5 10 3 14 11 17 11 17 0 0 -8 6 -6 16 7 8 10 13 14 10 8 -7 -14
31 -26 40 -13 8 14 26 11 18 -3 -6 -10 -4 -10 7 0 16 15 33 16 23 0 -5 -7 -3
-8 7 -2 21 13 39 14 39 1 0 -6 7 -2 16 9 8 10 13 14 10 8 -7 -14 31 -26 40
-13 8 14 26 11 18 -3 -6 -10 -4 -10 7 0 7 6 17 12 22 12 4 0 5 -6 1 -12 -6
-10 -5 -10 7 -1 12 10 18 10 29 0 10 -9 11 -9 6 1 -8 14 10 17 19 2 8 -13 25
-13 25 1 0 5 -5 7 -12 3 -7 -4 -8 -3 -4 4 7 12 31 6 55 -12 11 -8 13 -8 7 2
-5 8 0 12 16 12 13 0 30 -6 37 -12 8 -8 11 -8 8 -2 -4 7 2 14 12 17 14 3 18 1
14 -9 -4 -12 0 -12 22 -4 34 13 38 13 29 -2 -6 -10 -4 -10 8 0 11 9 18 10 23
2 8 -13 25 -13 25 1 0 5 -5 7 -12 3 -7 -4 -8 -3 -4 4 7 12 31 6 55 -12 11 -8
13 -8 7 2 -5 8 0 12 16 12 13 0 30 -6 37 -12 8 -8 11 -8 8 -2 -4 7 2 14 12 17
14 3 18 1 14 -9 -4 -11 1 -12 27 -2 25 8 38 8 51 -1 23 -14 29 -14 29 0 0 5
-5 7 -12 3 -6 -4 -8 -3 -5 3 9 14 58 4 50 -11 -4 -8 -2 -7 7 1 7 6 19 9 28 6
10 -4 13 -2 8 5 -5 8 -2 10 8 6 9 -3 14 -9 11 -13 -2 -4 2 -8 10 -8 8 0 12 4
9 9 -3 4 -1 8 5 8 5 0 13 -4 16 -10 8 -13 25 -13 25 1 0 5 -5 7 -12 3 -7 -4
-8 -3 -4 4 7 12 31 6 55 -12 11 -8 13 -8 7 2 -5 8 0 12 16 12 13 0 30 -6 37
-12 8 -8 11 -8 8 -2 -4 7 2 14 12 17 14 3 18 1 14 -9 -4 -12 0 -12 22 -4 34
13 38 13 29 -2 -6 -10 -4 -10 8 0 11 9 18 10 23 2 8 -13 25 -13 25 1 0 5 -5 7
-12 3 -7 -4 -8 -3 -4 4 7 12 31 6 55 -12 11 -8 13 -8 7 2 -5 8 0 12 16 12 13
0 30 -6 37 -12 8 -8 11 -8 8 -2 -4 7 2 14 12 17 14 3 18 1 14 -9 -4 -11 1 -12
27 -2 25 8 38 8 51 -1 23 -14 29 -14 29 0 0 5 -5 7 -12 3 -6 -4 -8 -3 -5 3 9
14 58 4 50 -11 -4 -8 -2 -7 7 1 7 6 19 9 28 6 10 -4 13 -2 8 5 -5 8 -2 10 8 6
9 -3 13 -11 9 -18 -4 -6 1 -5 10 3 14 11 17 11 17 0 0 -8 6 -6 16 7 8 10 13
14 10 8 -7 -14 31 -26 40 -13 8 14 26 11 18 -3 -6 -10 -4 -10 7 0 16 15 33 16
23 0 -5 -7 -3 -8 7 -2 21 13 39 14 39 1 0 -6 7 -2 16 9 8 10 13 14 10 8 -7
-14 31 -26 40 -13 8 14 26 11 18 -3 -6 -10 -4 -10 7 0 7 6 17 12 22 12 4 0 5
-6 1 -12 -6 -10 -5 -10 7 -1 12 10 18 10 29 0 10 -9 11 -9 6 1 -8 14 10 17 19
2 8 -13 25 -13 25 1 0 5 -5 7 -12 3 -7 -4 -8 -3 -4 4 7 12 31 6 55 -12 11 -8
13 -8 7 2 -5 8 0 12 16 12 13 0 30 -6 37 -12 8 -8 11 -8 8 -2 -4 7 2 14 12 17
14 3 18 1 14 -9 -4 -12 0 -12 22 -4 34 13 38 13 29 -2 -6 -10 -4 -10 8 0 11 9
18 10 23 2 8 -13 25 -13 25 1 0 5 -5 7 -12 3 -7 -4 -8 -3 -4 4 7 12 31 6 55
-12 11 -8 13 -8 7 2 -5 8 0 12 16 12 13 0 30 -6 37 -12 8 -8 11 -8 8 -2 -4 7
2 14 12 17 14 3 18 1 14 -9 -4 -11 1 -12 27 -2 25 8 38 8 51 -1 23 -14 29 -14
29 0 0 5 -5 7 -12 3 -6 -4 -8 -3 -5 3 9 14 58 4 50 -11 -4 -8 -2 -7 7 1 7 6
19 9 28 6 10 -4 13 -2 8 5 -5 8 -2 10 8 6 9 -3 13 -11 9 -18 -4 -6 1 -5 10 3
14 11 17 11 17 0 0 -8 6 -6 16 7 8 10 13 14 10 8 -7 -14 31 -26 40 -13 8 14
26 11 18 -3 -6 -10 -4 -10 7 0 16 15 33 16 23 0 -5 -7 -3 -8 7 -2 21 13 39 14
39 1 0 -6 7 -2 16 9 8 10 13 14 10 8 -7 -14 31 -26 40 -13 8 14 26 11 18 -3
-6 -10 -4 -10 7 0 7 6 17 12 22 12 4 0 5 -6 1 -12 -6 -10 -5 -10 7 -1 12 10
18 10 29 0 10 -9 11 -9 6 1 -8 14 10 17 19 2 8 -13 25 -13 25 1 0 5 -5 7 -12
3 -7 -4 -8 -3 -4 4 7 12 31 6 55 -12 11 -8 13 -8 7 2 -5 8 0 12 16 12 13 0 30
-6 37 -12 8 -8 11 -8 8 -2 -4 7 2 14 12 17 14 3 18 1 14 -9 -4 -12 0 -12 22
-4 34 13 38 13 29 -2 -6 -10 -4 -10 8 0 11 9 18 10 23 2 8 -13 25 -13 25 1 0
5 -5 7 -12 3 -7 -4 -8 -3 -4 4 7 12 31 6 55 -12 11 -8 13 -8 7 2 -5 8 0 12 16
12 13 0 30 -6 37 -12 8 -8 11 -8 8 -2 -4 7 2 14 12 17 14 3 18 1 14 -9 -4 -11
1 -12 27 -2 25 8 38 8 51 -1 23 -14 29 -14 29 0 0 5 -5 7 -12 3 -6 -4 -8 -3
-5 3 9 14 58 4 50 -11 -4 -8 -2 -7 7 1 7 6 19 9 28 6 10 -4 13 -2 8 5 -5 8 -2
10 8 6 9 -3 13 -11 10 -16 -4 -6 5 -2 20 7 24 16 26 16 20 1 -5 -14 -3 -15 21
-6 34 13 38 13 29 -2 -6 -10 -4 -10 8 0 11 9 18 10 23 2 8 -13 25 -13 25 1 0
5 -5 7 -12 3 -7 -4 -8 -3 -4 4 5 9 16 8 41 -2 29 -13 35 -13 46 0 7 9 16 11
21 6 5 -5 28 -7 51 -5 31 3 38 1 27 -6 -25 -17 -1 -12 26 5 22 15 24 15 18 0
-5 -14 -3 -15 21 -6 34 13 38 13 29 -2 -6 -10 -4 -10 8 0 11 9 18 10 23 2 8
-13 25 -13 25 1 0 5 -5 7 -12 3 -7 -4 -8 -3 -4 4 7 12 31 6 55 -12 11 -8 13
-8 7 2 -5 8 0 12 16 12 13 0 30 -6 37 -12 8 -8 11 -8 8 -2 -4 7 2 14 12 17 13
3 18 1 14 -8 -4 -11 4 -11 41 0 39 12 44 12 39 -1 -4 -12 0 -13 22 -4 34 13
38 13 29 -2 -6 -10 -4 -10 8 0 11 9 18 10 23 2 8 -13 25 -13 25 1 0 5 -5 7
-12 3 -7 -4 -8 -3 -4 4 5 9 16 8 41 -2 29 -13 35 -13 46 0 7 9 16 11 21 6 5
-5 28 -7 51 -5 31 3 38 1 27 -6 -25 -17 -1 -12 26 5 22 15 24 15 18 0 -5 -14
-3 -15 21 -6 34 13 38 13 29 -2 -6 -10 -5 -10 7 -1 12 10 18 10 29 0 10 -10
11 -9 5 1 -5 10 -2 13 11 10 11 -2 19 -10 19 -18 0 -8 5 -18 10 -22 6 -4 1 -8
-10 -9 l-20 0 20 -9 c11 -5 14 -9 7 -9 -7 -1 -10 -6 -7 -11 4 -6 12 -8 18 -4
7 3 5 0 -3 -8 -15 -12 -18 -84 -5 -97 3 -2 -3 -10 -13 -18 -9 -8 -12 -12 -7
-9 6 2 17 1 25 -5 12 -7 12 -9 -4 -9 -15 0 -16 -3 -6 -15 7 -8 8 -15 3 -15 -5
0 -9 -10 -7 -22 1 -13 3 -33 3 -46 1 -15 5 -21 13 -16 7 4 8 3 4 -4 -4 -7 -15
-12 -24 -12 -15 -1 -15 -2 2 -11 15 -9 16 -13 5 -20 -8 -5 -9 -9 -3 -9 8 0 9
-13 4 -40 -5 -27 -4 -40 4 -41 6 0 2 -4 -9 -9 l-20 -9 20 0 c17 -1 17 -3 5
-11 -8 -5 -10 -10 -5 -10 6 0 10 -20 10 -45 0 -25 -4 -45 -10 -45 -5 0 -3 -5
5 -10 11 -7 11 -10 2 -10 -7 0 -10 -5 -7 -10 4 -6 12 -8 18 -4 7 3 5 0 -3 -8
-16 -13 -18 -46 -6 -67 4 -6 1 -11 -6 -11 -9 0 -9 -3 2 -10 11 -7 11 -10 2
-10 -7 0 -10 -5 -7 -10 4 -6 12 -8 18 -4 7 3 5 0 -3 -8 -15 -13 -19 -46 -6
-66 3 -6 -2 -13 -11 -15 -15 -4 -15 -5 2 -6 17 -1 18 -3 5 -11 -8 -5 -10 -10
-4 -10 8 0 9 -13 4 -40 -5 -27 -4 -40 4 -41 6 0 2 -4 -9 -9 l-20 -9 20 0 c17
-1 17 -3 5 -11 -8 -5 -10 -10 -5 -10 7 0 9 -15 7 -35 -2 -19 1 -42 8 -50 10
-12 9 -16 -4 -21 -13 -5 -14 -9 -5 -20 6 -8 7 -14 2 -14 -11 0 -11 -29 1 -48
4 -6 3 -12 -2 -12 -12 0 -3 -102 10 -118 8 -9 7 -11 -4 -7 -11 4 -13 -2 -10
-32 2 -21 9 -44 14 -50 7 -9 5 -15 -6 -19 -13 -5 -14 -9 -5 -20 7 -8 7 -14 2
-14 -11 0 -9 -42 2 -59 3 -6 0 -11 -7 -11 -9 0 -9 -3 2 -10 13 -9 13 -10 0
-10 -11 -1 -10 -4 4 -15 11 -8 14 -15 8 -15 -7 0 -12 -7 -12 -15 0 -9 6 -12
17 -8 10 4 14 2 10 -4 -4 -6 0 -14 9 -17 8 -3 13 -2 10 3 -3 5 1 11 9 15 8 3
17 0 21 -6 5 -7 2 -8 -6 -3 -9 5 -11 4 -6 -4 6 -8 12 -9 20 -2 9 7 17 7 26 -2
10 -10 11 -9 5 2 -6 11 -4 13 9 8 14 -5 17 -3 12 8 -3 10 1 15 12 15 13 0 14
2 3 9 -10 7 -11 13 -1 31 8 15 8 20 1 16 -6 -4 -11 -3 -11 3 0 5 5 13 11 17 8
5 8 9 -1 14 -9 6 -9 12 0 30 8 15 8 20 1 16 -6 -4 -11 -3 -11 3 0 5 5 13 11
17 8 5 8 9 -1 14 -9 6 -9 12 0 30 8 15 8 20 1 16 -6 -4 -11 -3 -11 3 0 5 5 13
11 17 8 5 8 9 -1 14 -9 6 -9 12 0 30 8 15 8 20 1 16 -6 -4 -11 -3 -11 3 0 5 5
13 11 17 8 5 8 9 -1 14 -9 6 -9 12 0 30 8 15 8 20 1 16 -6 -4 -11 -3 -11 3 0
5 5 13 11 17 8 5 8 9 -1 14 -9 6 -9 12 0 30 8 15 8 20 1 16 -6 -4 -11 -3 -11
3 0 5 5 13 11 17 8 5 8 9 -1 14 -9 6 -9 12 0 30 8 15 8 20 1 16 -15 -10 -14 7
2 23 8 10 8 12 0 7 -8 -4 -11 1 -10 14 1 11 6 20 12 20 5 0 4 4 -4 9 -9 6 -10
11 -2 15 6 4 11 13 11 19 0 7 -4 6 -10 -3 -8 -13 -10 -13 -10 2 0 9 5 20 10
23 6 4 7 12 3 18 -12 20 -12 37 0 37 8 0 7 3 -2 9 -9 6 -10 11 -2 15 6 4 11
13 11 19 0 7 -4 6 -10 -3 -8 -13 -10 -13 -10 2 0 9 5 20 10 23 6 4 7 12 3 18
-12 20 -12 37 0 37 8 0 7 3 -2 9 -9 6 -10 11 -2 15 6 4 11 13 11 19 0 7 -4 6
-10 -3 -8 -13 -10 -13 -10 2 0 9 5 20 10 23 6 4 7 12 3 18 -12 20 -12 37 0 37
8 0 7 3 -2 9 -9 6 -10 11 -2 15 6 4 11 13 11 19 0 7 -4 6 -10 -3 -8 -13 -10
-13 -10 2 0 9 5 20 10 23 6 4 7 12 3 18 -12 20 -12 37 0 37 8 0 7 3 -2 9 -9 6
-10 11 -2 15 6 4 11 13 11 19 0 7 -4 6 -10 -3 -8 -13 -10 -13 -10 2 0 9 5 20
10 23 6 4 7 12 3 18 -12 20 -12 37 0 37 8 0 7 3 -2 9 -9 6 -10 11 -2 15 6 4
11 13 11 19 0 7 -4 6 -10 -3 -8 -13 -10 -13 -10 2 0 9 5 20 10 23 6 4 7 12 3
18 -12 20 -12 37 0 37 8 0 7 3 -2 9 -9 6 -10 11 -2 15 6 4 11 13 11 19 0 7 -4
6 -10 -3 -8 -13 -10 -13 -10 2 0 9 5 20 10 23 6 4 7 12 3 18 -12 20 -12 37 0
37 8 0 7 3 -2 9 -9 6 -10 11 -2 15 6 4 11 13 11 19 0 7 -4 6 -10 -3 -8 -13
-10 -13 -10 2 0 9 5 20 10 23 6 4 7 12 3 18 -12 20 -12 37 0 37 8 0 7 3 -2 9
-9 6 -10 11 -2 15 6 4 11 13 11 19 0 7 -4 6 -10 -3 -8 -13 -10 -13 -10 2 0 9
5 20 10 23 6 4 7 12 3 18 -11 17 -10 31 2 39 6 5 6 8 -2 8 -7 0 -13 8 -13 19
0 10 -9 21 -20 24 -11 3 -20 2 -20 -3 0 -4 -16 -4 -35 0 -23 5 -36 4 -39 -4
-3 -8 -5 -8 -5 1 -1 8 -10 9 -30 3 -21 -6 -31 -5 -35 3 -3 9 -7 8 -14 -2 -8
-11 -11 -10 -15 5 -4 15 -5 15 -6 3 -1 -14 -7 -15 -33 -10 -18 4 -45 4 -60 0
-17 -4 -29 -3 -32 4 -3 9 -7 8 -14 -2 -8 -11 -11 -10 -15 5 -4 15 -5 15 -6 3
-1 -14 -7 -15 -33 -10 -18 4 -45 4 -60 0 -17 -4 -29 -3 -32 4 -3 9 -7 8 -14
-2 -8 -11 -11 -10 -15 5 -4 15 -5 15 -6 3 -1 -14 -7 -15 -33 -10 -18 4 -45 4
-60 0 -17 -4 -29 -3 -32 4 -3 9 -7 8 -14 -2 -8 -11 -11 -10 -15 5 -4 15 -5 15
-6 3 -1 -14 -7 -15 -33 -10 -18 4 -45 4 -60 0 -17 -4 -29 -3 -32 4 -3 9 -7 8
-14 -2 -8 -11 -11 -10 -15 5 -4 15 -5 15 -6 3 -1 -14 -7 -15 -33 -10 -18 4
-45 4 -60 0 -17 -4 -29 -3 -32 4 -3 9 -7 8 -14 -2 -8 -11 -11 -10 -15 5 -4 15
-5 15 -6 3 -1 -14 -7 -15 -33 -10 -18 4 -45 4 -60 0 -17 -4 -29 -3 -32 4 -3 9
-7 8 -14 -2 -8 -11 -11 -10 -15 5 -3 14 -5 15 -6 3 -1 -12 -8 -15 -28 -11 -16
2 -34 10 -42 16 -11 8 -13 8 -7 -1 5 -10 -12 -13 -76 -14 -99 -2 -88 -2 -112
7 -16 6 -18 4 -12 -12 7 -18 6 -18 -10 -3 -12 13 -24 15 -45 9 -19 -6 -30 -4
-33 3 -5 9 -7 9 -11 1 -4 -8 -17 -9 -40 -4 -23 5 -35 4 -35 -3 0 -6 -7 -2 -15
9 -14 18 -15 18 -9 0 6 -16 4 -17 -14 -7 -29 15 -35 14 -28 -6 5 -13 0 -11
-20 7 -15 14 -24 19 -20 13 5 -10 -13 -13 -76 -14 -99 -2 -88 -2 -112 7 -16 6
-18 4 -12 -12 7 -18 6 -18 -10 -3 -12 13 -24 15 -45 9 -19 -6 -30 -4 -33 3 -5
9 -7 9 -11 1 -4 -8 -17 -9 -40 -4 -23 5 -35 4 -35 -3 0 -6 -7 -2 -15 9 -14 18
-15 18 -9 0 6 -16 4 -17 -14 -7 -29 15 -35 14 -28 -6 5 -13 0 -11 -20 7 -15
14 -24 19 -20 13 5 -10 -13 -13 -76 -14 -99 -2 -88 -2 -112 7 -16 6 -18 4 -12
-12 7 -18 6 -18 -10 -3 -12 13 -24 15 -45 9 -19 -6 -30 -4 -33 3 -5 9 -7 9
-11 1 -4 -8 -17 -9 -40 -4 -23 5 -35 4 -35 -3 0 -6 -7 -2 -15 9 -14 18 -15 18
-9 0 6 -16 4 -17 -14 -7 -29 15 -35 14 -28 -6 5 -13 0 -11 -20 7 -15 14 -24
19 -20 13 5 -10 -13 -13 -76 -14 -99 -2 -88 -2 -112 7 -16 6 -18 4 -12 -12 7
-18 6 -18 -10 -3 -12 13 -24 15 -45 9 -19 -6 -30 -4 -33 3 -5 9 -7 9 -11 1 -4
-8 -17 -9 -40 -4 -23 5 -35 4 -35 -3 0 -6 -7 -2 -15 9 -14 18 -15 18 -9 0 6
-16 4 -17 -14 -7 -29 15 -35 14 -28 -6 5 -13 0 -11 -20 7 -15 14 -24 19 -20
13 5 -10 -13 -13 -76 -14 -99 -2 -88 -2 -112 7 -16 6 -18 4 -12 -12 7 -18 6
-18 -10 -3 -12 13 -24 15 -45 9 -19 -6 -30 -4 -33 3 -5 9 -7 9 -11 1 -4 -8
-17 -9 -40 -4 -23 5 -35 4 -35 -3 0 -6 -7 -2 -15 9 -14 18 -15 18 -9 0 6 -16
4 -17 -14 -7 -29 15 -35 14 -28 -6 5 -13 0 -11 -20 7 -15 14 -24 19 -20 13 6
-10 -29 -13 -156 -14 -190 -2 -168 -2 -192 7 -16 6 -18 4 -12 -12 7 -18 6 -18
-10 -3 -12 13 -24 15 -45 9 -19 -6 -30 -4 -33 3 -5 9 -7 9 -11 1 -4 -8 -17 -9
-40 -4 -23 5 -35 4 -35 -3 0 -6 -7 -2 -15 9 -14 18 -15 18 -9 0 6 -16 4 -17
-14 -7 -29 15 -35 14 -28 -6 5 -13 0 -11 -20 7 -15 14 -24 19 -20 13 5 -10
-13 -13 -76 -14 -99 -2 -88 -2 -112 7 -16 6 -18 4 -12 -12 7 -18 6 -18 -10 -3
-12 13 -24 15 -45 9 -19 -6 -30 -4 -33 3 -5 9 -7 9 -11 1 -4 -8 -17 -9 -40 -4
-23 5 -35 4 -35 -3 0 -6 -7 -2 -15 9 -14 18 -15 18 -9 0 6 -16 4 -17 -14 -7
-29 15 -35 14 -28 -6 5 -13 0 -11 -20 7 -15 14 -24 19 -20 13 5 -10 -13 -13
-76 -14 -99 -2 -88 -2 -112 7 -16 6 -18 4 -12 -12 7 -18 6 -18 -10 -3 -12 13
-24 15 -45 9 -19 -6 -30 -4 -33 3 -5 9 -7 9 -11 1 -4 -8 -17 -9 -40 -4 -23 5
-35 4 -35 -3 0 -6 -7 -2 -15 9 -14 18 -15 18 -9 0 6 -16 4 -17 -14 -7 -29 15
-35 14 -28 -6 5 -13 0 -11 -20 7 -15 14 -24 19 -20 13 5 -10 -13 -13 -76 -14
-99 -2 -88 -2 -112 7 -16 6 -18 4 -12 -12 7 -18 6 -18 -10 -3 -12 13 -24 15
-45 9 -19 -6 -30 -4 -33 3 -4 9 -8 8 -12 -1 -5 -10 -10 -9 -25 4 -19 17 -20
17 -26 -5z m14 -13 c-3 -8 -6 -5 -6 6 -1 11 2 17 5 13 3 -3 4 -12 1 -19z"/>
<path d="M8622 6329 c2 -8 -3 -13 -11 -11 -24 5 -41 -19 -36 -50 3 -16 2 -27
-3 -24 -4 2 -8 -4 -8 -14 0 -11 5 -16 14 -12 11 4 9 -3 -4 -24 -11 -15 -13
-25 -6 -21 15 10 15 2 2 -23 -9 -16 -8 -18 6 -13 14 5 14 2 -2 -23 -11 -15
-13 -25 -6 -21 8 5 12 2 12 -8 0 -10 -5 -13 -12 -9 -8 5 -7 1 2 -10 16 -21 23
-49 9 -40 -5 3 -6 11 -3 17 4 7 3 9 -1 4 -11 -9 -14 -48 -4 -42 4 3 9 -2 13
-10 3 -8 0 -17 -6 -21 -7 -5 -8 -2 -3 6 5 8 4 11 -2 7 -11 -7 -10 -43 2 -54 4
-5 5 -2 0 6 -5 9 -4 12 3 7 9 -5 7 -14 -4 -32 -15 -23 -15 -24 1 -18 16 7 16
5 -1 -22 -11 -15 -13 -25 -6 -21 15 10 15 2 2 -23 -9 -16 -8 -18 6 -13 14 5
14 2 -2 -23 -11 -15 -13 -25 -6 -21 8 5 12 2 12 -8 0 -10 -5 -13 -12 -9 -8 5
-7 1 2 -10 16 -21 23 -49 9 -40 -5 3 -6 11 -3 17 4 7 3 9 -1 4 -11 -9 -14 -48
-4 -42 4 3 9 -2 13 -10 3 -8 0 -17 -6 -21 -7 -5 -8 -2 -3 6 5 8 4 11 -2 7 -11
-7 -10 -43 2 -54 4 -5 5 -2 0 6 -5 9 -4 12 3 7 9 -5 7 -14 -4 -32 -15 -23 -15
-24 1 -18 16 7 16 5 -1 -22 -11 -15 -13 -25 -6 -21 15 10 15 2 2 -23 -9 -16
-8 -18 6 -13 14 5 14 2 -2 -23 -11 -15 -13 -25 -6 -21 8 5 12 2 12 -8 0 -10
-5 -13 -12 -9 -8 5 -7 1 2 -10 16 -21 23 -49 9 -40 -5 3 -6 11 -3 17 4 7 3 9
-1 4 -11 -9 -14 -48 -4 -42 4 3 9 -2 13 -10 3 -8 0 -17 -6 -21 -7 -5 -8 -2 -3
6 5 8 4 11 -2 7 -11 -7 -10 -43 2 -54 4 -5 5 -2 0 6 -5 9 -4 12 3 7 9 -5 7
-14 -4 -32 -15 -23 -15 -24 1 -18 16 7 16 5 -1 -22 -11 -15 -13 -25 -6 -21 8
5 12 2 12 -8 0 -9 -4 -14 -9 -11 -5 4 -7 -3 -4 -14 3 -11 9 -18 13 -15 11 7 6
-22 -5 -32 -4 -4 -5 -2 0 6 5 9 4 12 -3 7 -8 -4 -8 -15 -2 -31 5 -14 7 -25 4
-25 -4 0 -1 -6 5 -14 9 -11 9 -16 0 -22 -8 -5 -10 -3 -4 7 5 8 4 10 0 6 -16
-14 -14 -37 3 -37 13 0 12 -3 -4 -16 -10 -8 -14 -13 -8 -10 15 8 26 -21 12
-30 -7 -5 -8 -2 -3 6 5 9 4 11 -3 6 -8 -4 -8 -15 -2 -31 5 -14 7 -25 4 -25 -4
0 -1 -6 5 -14 9 -11 9 -16 0 -22 -8 -5 -9 -3 -4 6 5 8 4 11 -3 6 -12 -7 -5
-36 9 -36 4 0 5 -7 2 -17 -5 -12 -3 -14 7 -8 9 5 11 4 6 -3 -4 -6 0 -22 9 -35
8 -13 12 -27 8 -30 -3 -4 -1 -7 5 -7 7 0 12 -4 12 -10 0 -15 33 -50 47 -50 7
0 13 -5 13 -11 0 -5 -5 -7 -12 -3 -7 4 -8 3 -4 -4 4 -6 13 -9 20 -6 8 3 20 -3
27 -13 18 -24 46 -43 34 -22 -5 8 0 6 12 -4 12 -11 27 -15 38 -11 13 5 16 4
10 -5 -6 -10 -3 -11 14 -2 12 7 21 8 20 4 -3 -21 2 -24 18 -12 11 10 14 10 9
2 -4 -7 -3 -13 3 -13 5 0 12 6 14 13 4 9 7 9 14 0 10 -14 49 -10 46 5 -1 6 7
6 22 -1 13 -7 21 -15 19 -19 -3 -5 11 1 30 13 37 21 46 43 24 53 -7 4 -3 4 10
2 18 -3 21 -2 12 9 -6 7 -8 20 -4 29 4 11 1 16 -12 16 -11 0 -15 4 -9 8 6 4
11 15 12 25 0 10 -2 16 -5 13 -3 -3 -12 0 -20 7 -13 9 -14 9 -8 0 4 -7 2 -13
-3 -13 -6 0 -11 5 -11 11 0 5 -4 7 -10 4 -5 -3 -10 0 -10 7 0 8 -3 9 -8 3 -10
-15 -32 -17 -46 -5 -7 5 -16 7 -19 3 -4 -3 -7 -1 -7 6 0 8 -6 11 -16 7 -9 -4
-13 -2 -8 5 4 8 -1 9 -15 4 -15 -5 -21 -2 -21 10 0 9 -4 13 -10 10 -5 -3 -10
1 -10 10 0 8 -7 18 -16 22 -8 3 -13 11 -10 19 3 7 0 14 -6 16 -6 2 -12 18 -12
36 -1 22 3 31 12 27 7 -3 5 6 -5 22 -17 26 -17 27 0 20 16 -6 16 -5 0 20 -17
26 -17 27 2 20 18 -6 18 -6 3 6 -15 12 -15 14 0 25 9 7 11 10 5 7 -15 -7 -18
21 -3 30 6 4 3 16 -8 33 -16 25 -16 26 3 18 16 -6 18 -5 8 5 -16 16 -18 215
-3 224 6 4 3 16 -8 33 -16 25 -16 26 3 18 16 -6 18 -5 8 5 -15 15 -17 55 -3
64 6 4 3 16 -8 33 -16 25 -16 26 2 19 16 -6 17 -5 6 8 -7 8 -10 26 -7 41 3 19
1 24 -10 20 -8 -3 -11 -1 -8 4 3 6 14 10 23 11 11 0 12 3 5 6 -16 6 -19 368
-3 378 6 4 3 16 -8 33 -16 25 -16 26 3 18 16 -6 18 -5 8 5 -15 15 -17 55 -3
64 6 4 3 16 -8 33 -16 25 -16 26 2 19 15 -6 17 -5 7 7 -6 7 -11 27 -11 42 1
47 -3 63 -12 58 -5 -3 -15 0 -23 6 -12 10 -18 10 -29 1 -11 -10 -17 -8 -25 6
-10 17 -10 17 -11 -2 0 -11 -3 -16 -8 -10 -4 6 -14 10 -22 10 -8 -1 -21 3 -28
9 -9 7 -12 5 -10 -5z m178 -163 c0 -2 -7 -7 -16 -10 -8 -3 -12 -2 -9 4 6 10
25 14 25 6z m0 -120 c0 -2 -7 -7 -16 -10 -8 -3 -12 -2 -9 4 6 10 25 14 25 6z
m0 -520 c0 -2 -7 -7 -16 -10 -8 -3 -12 -2 -9 4 6 10 25 14 25 6z m0 -120 c0
-2 -7 -7 -16 -10 -8 -3 -12 -2 -9 4 6 10 25 14 25 6z"/>
<path d="M2913 6275 c-9 -10 -21 -11 -43 -5 -16 5 -30 5 -30 2 0 -4 -16 -7
-36 -7 -29 0 -38 -5 -45 -23 -5 -13 -5 -21 -1 -18 5 3 6 -15 2 -39 -4 -25 -3
-45 2 -45 5 0 6 -5 3 -10 -4 -6 -11 -8 -16 -5 -5 4 -9 2 -9 -3 0 -6 7 -13 15
-16 13 -4 14 -10 5 -26 -8 -14 -8 -20 0 -20 6 0 8 -5 5 -10 -4 -6 -11 -8 -16
-5 -5 4 -9 2 -9 -4 0 -5 5 -11 12 -13 12 -4 19 -58 7 -58 -6 0 -3 -64 5 -102
2 -10 0 -18 -6 -18 -5 0 -6 -5 -2 -11 8 -13 11 -109 4 -109 -3 0 -5 -16 -5
-35 0 -19 4 -35 8 -35 5 0 5 -5 2 -10 -4 -6 -11 -8 -16 -5 -5 4 -9 2 -9 -3 0
-6 7 -13 15 -16 13 -4 14 -10 5 -26 -8 -14 -8 -20 0 -20 6 0 8 -5 5 -10 -4 -6
-11 -8 -16 -5 -5 4 -9 2 -9 -3 0 -6 7 -13 15 -16 12 -4 13 -10 6 -25 -6 -11
-7 -30 -2 -47 4 -16 6 -38 5 -49 -5 -28 -6 -117 -1 -139 2 -10 0 -38 -3 -62
-4 -24 -3 -44 2 -44 5 0 6 -5 3 -10 -4 -6 -11 -8 -16 -5 -5 4 -9 2 -9 -3 0 -6
7 -13 15 -16 13 -4 14 -10 5 -26 -8 -14 -8 -20 0 -20 6 0 8 -5 5 -10 -4 -6
-11 -8 -16 -5 -5 4 -9 2 -9 -4 0 -5 5 -11 12 -13 12 -4 19 -58 7 -58 -6 0 -3
-64 5 -102 2 -10 0 -18 -6 -18 -5 0 -6 -5 -2 -11 8 -13 11 -109 4 -109 -3 0
-5 -16 -5 -35 0 -19 4 -35 8 -35 5 0 5 -5 2 -10 -4 -6 -11 -8 -16 -5 -5 4 -9
1 -9 -4 0 -6 4 -11 9 -11 5 0 11 -10 13 -22 2 -15 10 -23 23 -23 11 0 23 -4
27 -9 4 -6 12 -5 21 3 12 9 16 9 20 -1 3 -10 8 -10 17 -2 14 14 53 6 44 -8 -3
-5 3 -4 15 4 12 7 22 17 23 23 1 13 5 28 8 35 7 19 7 40 -1 40 -5 0 -9 5 -9
11 0 5 3 8 8 6 4 -3 7 8 7 23 0 15 -3 26 -7 23 -11 -6 -10 5 3 29 8 15 8 19 0
14 -7 -5 -10 1 -7 16 3 13 5 23 6 23 1 0 3 10 4 22 1 12 -1 20 -5 17 -9 -5 -6
47 4 64 5 7 3 12 -3 12 -7 0 -10 6 -7 13 2 6 11 11 18 9 9 -2 7 4 -5 17 -11
12 -14 21 -8 21 7 0 12 5 12 11 0 5 -4 8 -9 4 -6 -3 -6 6 -1 25 5 19 5 28 -1
25 -12 -8 -11 2 2 27 8 15 8 19 0 14 -12 -8 -11 21 2 42 5 6 5 17 1 23 -4 7
-1 10 7 7 8 -3 20 2 27 11 8 9 11 11 8 5 -3 -7 1 -17 9 -24 12 -10 16 -9 21 3
3 9 13 13 25 10 11 -3 16 -10 12 -17 -4 -6 2 -4 12 4 15 12 17 12 10 1 -6 -11
-3 -13 14 -8 15 3 24 0 28 -10 4 -10 8 -11 13 -3 7 12 28 14 73 7 16 -2 27 0
27 7 0 6 5 4 10 -4 7 -11 10 -11 10 -2 0 10 5 10 20 2 14 -8 20 -8 20 0 0 6 5
8 12 4 17 -10 108 -11 108 -1 0 4 6 5 12 1 24 -15 49 -12 43 5 -4 12 -2 12 9
-2 13 -16 14 -16 20 -1 5 13 10 14 17 7 8 -8 21 -6 46 8 21 12 32 14 28 7 -4
-7 0 -5 8 4 8 10 17 15 20 11 4 -3 7 -1 7 6 0 8 6 11 16 7 11 -4 15 -2 11 8
-4 11 -1 13 10 9 12 -5 14 -3 8 7 -6 10 -4 12 9 7 14 -5 17 -3 12 8 -3 9 0 15
8 15 8 0 17 7 20 16 3 9 11 12 18 8 8 -5 7 0 -2 11 -9 11 -10 16 -2 11 7 -4
12 -1 12 8 0 9 6 16 13 16 8 0 7 4 -3 10 -10 6 -11 10 -2 10 6 0 12 7 12 16 0
8 5 12 11 8 8 -4 8 0 0 15 -10 17 -9 20 4 15 11 -5 13 -2 9 10 -3 9 -1 16 6
16 6 0 9 4 5 9 -3 5 -1 13 5 16 8 5 7 12 -2 23 -11 13 -11 14 1 7 11 -6 13 -4
8 8 -3 10 -2 17 3 17 5 0 7 7 4 15 -4 9 0 15 7 15 11 0 11 3 -1 10 -12 8 -13
11 -1 19 11 7 11 10 0 15 -11 5 -11 7 -1 12 6 3 12 19 12 35 0 21 4 28 13 23
10 -6 10 -4 0 7 -7 7 -13 22 -13 34 0 12 6 27 13 34 8 10 8 12 0 7 -6 -3 -14
-2 -18 4 -3 5 -2 10 3 10 6 0 8 9 5 20 -3 11 -9 18 -12 15 -4 -2 -8 2 -8 10 0
8 5 15 11 15 6 0 4 5 -4 10 -13 9 -13 11 0 20 8 5 10 10 4 10 -7 0 -15 7 -18
16 -6 15 -4 15 10 3 16 -13 16 -12 4 8 -8 12 -19 19 -25 15 -5 -3 -4 2 4 11
10 13 10 17 1 17 -10 0 -10 3 0 15 9 10 9 15 1 15 -6 0 -11 7 -11 16 0 9 -8
23 -17 31 -10 8 -12 12 -5 8 19 -10 14 2 -10 26 -13 12 -18 19 -12 16 6 -3 11
0 11 8 0 8 -5 13 -11 12 -6 -1 -10 6 -10 16 2 15 -1 16 -14 5 -9 -8 -13 -8 -9
-2 4 7 -7 27 -25 45 -17 19 -28 27 -24 19 5 -8 -3 -3 -16 13 -19 20 -35 27
-62 27 -20 0 -36 4 -36 9 0 5 -9 11 -20 14 -11 3 -20 0 -20 -6 0 -6 -7 -2 -16
9 -8 10 -13 13 -9 7 3 -7 1 -13 -4 -13 -6 0 -11 5 -11 11 0 8 -4 8 -13 0 -10
-8 -17 -7 -25 1 -8 8 -16 8 -28 -3 -10 -8 -15 -9 -11 -2 4 6 3 14 -3 18 -5 3
-10 1 -10 -5 0 -7 -6 -8 -18 -1 -11 6 -24 6 -34 0 -12 -7 -20 -5 -27 8 -10 17
-10 17 -11 1 0 -11 -5 -15 -15 -12 -9 4 -15 0 -16 -7 0 -8 -4 -5 -9 6 -5 11
-9 14 -9 7 -1 -7 -6 -10 -11 -7 -6 4 -8 12 -4 18 3 7 -2 3 -11 -8 -12 -14 -19
-16 -22 -8 -3 9 -10 10 -23 3 -15 -8 -21 -6 -29 7 -10 17 -10 17 -11 1 0 -11
-5 -15 -15 -12 -9 4 -15 0 -16 -7 0 -8 -4 -5 -9 6 -5 11 -9 14 -9 7 -1 -7 -6
-10 -11 -7 -6 4 -8 12 -4 18 3 7 -2 3 -11 -8 -12 -14 -19 -16 -22 -7 -7 17
-23 15 -23 -4 0 -14 -2 -13 -17 2 -16 15 -17 15 -24 -2 -4 -11 -8 -13 -8 -6
-1 6 -10 12 -21 12 -11 0 -20 -6 -21 -12 -1 -7 -4 -3 -7 8 -6 18 -9 20 -19 9z
m112 -214 c-5 12 1 14 32 11 21 -3 41 -10 45 -16 5 -7 8 -4 8 7 0 10 4 16 8
13 20 -12 62 -14 62 -3 0 8 3 8 8 2 10 -14 72 -14 72 -1 0 6 5 4 11 -4 8 -12
12 -12 16 -2 4 10 10 9 26 -5 11 -10 17 -12 13 -5 -9 15 35 17 51 1 7 -7 15
-6 26 5 9 9 18 12 21 7 3 -5 16 -7 28 -3 16 4 19 2 13 -9 -7 -11 -6 -12 6 -2
11 9 19 7 37 -7 15 -13 18 -20 10 -24 -7 -4 -3 -4 10 -2 19 4 21 2 11 -10 -10
-12 -9 -13 6 -7 15 5 17 3 12 -11 -4 -10 -3 -15 3 -11 6 3 10 1 10 -5 0 -6 5
-8 10 -5 9 6 11 1 14 -42 0 -10 8 -25 16 -33 11 -10 12 -12 1 -5 -12 9 -12 7
-2 -12 9 -18 9 -23 -1 -23 -8 0 -6 -5 4 -11 9 -5 15 -16 12 -23 -3 -8 -1 -17
5 -20 7 -4 7 -15 1 -31 -7 -18 -5 -28 6 -40 14 -14 11 -19 -8 -16 -12 2 -9 -6
8 -23 8 -9 11 -16 6 -16 -6 0 -13 -7 -16 -16 -4 -10 -2 -13 7 -8 9 6 9 4 -1
-8 -10 -13 -10 -17 0 -21 8 -3 6 -6 -6 -6 -16 -1 -17 -3 -5 -18 12 -15 12 -16
-4 -10 -13 5 -16 3 -10 -6 12 -19 12 -37 1 -37 -6 0 -8 -7 -4 -15 3 -8 -4 -24
-16 -35 -12 -11 -18 -20 -12 -20 5 0 2 -5 -6 -10 -8 -5 -15 -15 -15 -22 -1 -7
-6 -12 -13 -11 -7 2 -11 -3 -9 -10 1 -6 -6 -11 -15 -11 -10 1 -18 -2 -18 -8 0
-5 -4 -7 -10 -3 -9 6 -41 -9 -72 -33 -12 -10 -18 -11 -24 -1 -4 8 -3 10 4 5 7
-4 12 -2 12 3 0 14 -17 14 -25 1 -8 -13 -86 -10 -104 4 -11 8 -13 8 -8 -1 10
-15 -52 -15 -72 1 -11 8 -13 8 -8 -1 10 -15 -52 -15 -72 1 -11 8 -13 8 -8 -1
10 -15 -52 -15 -72 1 -11 8 -13 8 -7 -2 5 -8 2 -11 -11 -8 -42 9 -62 19 -57
27 3 5 -1 9 -8 9 -9 0 -9 3 2 10 11 7 11 10 2 10 -8 0 -10 5 -5 13 11 18 13
38 2 31 -11 -6 -11 -6 0 34 7 23 6 32 -2 32 -8 0 -8 3 -2 8 13 9 16 42 4 42
-5 0 -9 5 -9 11 0 5 3 8 8 6 4 -3 7 8 7 23 1 16 -3 26 -7 24 -11 -7 -10 4 3
28 7 13 7 18 1 14 -12 -7 -11 42 1 62 5 7 3 12 -3 12 -7 0 -10 6 -7 13 2 6 11
11 18 9 9 -2 7 4 -5 17 -11 12 -14 21 -8 21 7 0 12 5 12 11 0 5 -4 8 -9 4 -6
-3 -6 6 -1 25 5 19 5 28 -1 25 -12 -8 -11 2 2 27 7 13 7 18 1 14 -12 -7 -11
42 1 61 4 6 1 14 -5 17 -10 5 -10 7 0 12 9 4 10 9 2 19 -8 10 -8 15 1 20 6 4
15 2 19 -5 5 -8 9 -7 14 6 6 16 8 16 21 -2 10 -12 13 -14 10 -3z m-80 -1421
c-3 -5 -12 -10 -18 -10 -7 0 -6 4 3 10 19 12 23 12 15 0z"/>
<path d="M2741 5884 c0 -11 3 -14 6 -6 3 7 2 16 -1 19 -3 4 -6 -2 -5 -13z"/>
<path d="M5356 5831 c4 -9 0 -19 -11 -28 -11 -7 -13 -13 -6 -13 7 0 9 -5 6
-10 -4 -6 -11 -7 -17 -4 -7 5 -8 2 -4 -5 5 -7 10 -26 13 -43 3 -23 1 -28 -9
-22 -11 6 -11 5 0 -8 8 -10 10 -26 6 -42 -4 -17 -2 -26 6 -26 6 0 8 -5 5 -10
-4 -6 -11 -7 -17 -4 -7 5 -8 2 -4 -5 5 -7 10 -26 13 -43 3 -23 1 -28 -9 -22
-10 6 -10 4 1 -9 11 -14 11 -17 0 -17 -12 0 -12 -2 0 -9 9 -6 10 -10 2 -16 -8
-4 -9 -11 -3 -18 5 -7 8 -20 7 -29 -2 -10 1 -18 6 -18 6 0 7 -5 4 -10 -4 -6
-11 -8 -16 -5 -5 3 -6 -1 -3 -9 3 -9 10 -13 15 -10 5 3 6 -2 3 -10 -3 -9 -9
-14 -13 -12 -4 3 -7 -4 -7 -14 0 -10 6 -16 13 -13 10 4 11 0 4 -20 -7 -17 -6
-28 2 -37 9 -10 9 -11 0 -6 -8 4 -13 1 -13 -8 0 -9 5 -16 11 -16 5 0 7 -5 4
-10 -4 -6 -11 -8 -16 -5 -5 4 -9 1 -9 -4 0 -6 8 -11 18 -11 16 -1 16 -1 -1
-11 -10 -6 -14 -15 -10 -22 4 -7 9 -23 11 -35 2 -17 -1 -22 -10 -16 -9 6 -9 3
1 -9 8 -10 11 -20 8 -24 -4 -3 -2 -12 4 -19 7 -8 6 -14 -2 -20 -8 -5 -9 -3 -4
6 5 9 4 11 -3 6 -9 -5 -9 -13 -2 -27 8 -14 7 -19 -2 -19 -10 0 -10 -2 1 -9 9
-6 10 -10 2 -16 -8 -4 -9 -11 -3 -18 5 -7 8 -20 7 -29 -2 -10 1 -18 6 -18 6 0
7 -5 4 -10 -4 -6 -11 -8 -16 -5 -5 3 -6 -1 -3 -9 3 -9 10 -13 15 -10 5 3 6 -2
3 -10 -3 -9 -9 -14 -13 -11 -4 2 -8 -2 -8 -10 0 -8 5 -11 10 -8 6 4 8 0 4 -10
-3 -9 -2 -19 3 -22 7 -4 7 -13 1 -24 -6 -10 -7 -32 -5 -50 4 -26 3 -31 -8 -25
-10 6 -11 5 -1 -8 7 -8 10 -18 6 -21 -3 -4 0 -14 8 -23 12 -15 11 -16 -11 -10
l-25 7 25 -15 c23 -14 21 -20 -5 -17 -5 1 -2 -5 7 -12 10 -8 14 -18 10 -22 -4
-4 0 -6 8 -3 8 3 27 2 42 -3 21 -6 28 -4 31 9 4 15 5 15 6 0 1 -13 8 -17 24
-14 12 2 21 10 19 17 -2 9 0 10 11 1 8 -7 17 -9 20 -5 4 3 7 1 7 -6 0 -7 5 -9
11 -5 6 3 9 20 7 36 -3 16 0 32 5 35 6 4 7 1 2 -7 -5 -9 -4 -11 3 -6 9 5 7 14
-4 32 -9 13 -12 24 -6 24 6 0 12 -6 15 -12 3 -7 4 -3 4 9 -1 12 -4 20 -8 17
-4 -2 -9 5 -12 16 -3 11 0 23 5 27 6 3 8 1 4 -5 -3 -6 -2 -13 3 -16 12 -8 3
31 -16 66 -2 4 2 10 8 14 8 4 9 3 5 -4 -4 -7 -2 -12 3 -12 14 0 14 17 1 25 -5
3 -10 11 -10 16 0 6 6 7 13 3 9 -6 9 -5 0 7 -10 12 -10 18 0 29 9 10 9 11 0 6
-7 -4 -13 -3 -13 1 0 5 6 15 13 22 10 11 10 13 0 7 -15 -8 -18 10 -4 18 13 9
1 47 -13 40 -6 -3 -3 1 7 9 12 10 14 16 6 19 -10 3 -10 12 -1 37 10 27 9 32
-2 28 -10 -4 -12 0 -9 14 3 10 10 16 17 12 6 -3 6 0 -1 8 -7 7 -13 24 -13 37
0 16 4 21 13 16 9 -6 9 -4 1 7 -18 24 -24 48 -12 55 7 4 8 3 4 -4 -4 -7 -2
-12 3 -12 14 0 14 17 1 25 -8 5 -7 12 2 23 10 12 10 14 1 8 -16 -9 -16 -5 -3
29 9 23 8 26 -5 21 -13 -4 -14 -2 -5 14 6 11 7 20 3 20 -4 0 -2 5 5 12 7 7 12
17 12 22 0 6 -5 4 -10 -4 -15 -23 -12 4 5 36 8 16 28 38 45 49 16 11 30 26 30
34 0 11 3 11 17 0 11 -10 14 -10 9 -1 -4 6 -2 12 3 12 6 0 11 7 11 16 0 8 5
12 10 9 6 -3 24 3 40 15 16 12 34 18 40 15 5 -3 10 -1 10 5 0 6 5 8 10 5 6 -4
18 -1 26 6 13 10 17 10 25 -2 7 -11 9 -11 9 0 0 11 3 11 17 0 11 -10 14 -10 9
-1 -9 15 6 16 21 1 8 -8 13 -7 18 2 6 8 4 10 -5 4 -9 -6 -11 -4 -5 5 6 10 10
10 20 -3 9 -13 14 -14 24 -4 9 9 14 9 21 -3 7 -10 10 -11 10 -2 0 6 5 12 11
12 5 0 7 -6 3 -12 -6 -10 -4 -10 8 0 13 10 17 10 21 0 4 -9 6 -7 6 4 1 9 11
24 23 32 12 9 17 16 10 16 -6 0 -12 7 -12 16 0 9 5 12 13 8 8 -5 8 -2 -2 9
-11 14 -11 17 0 17 11 0 11 2 -1 10 -11 7 -11 10 -2 10 7 0 10 5 7 10 -4 6
-11 8 -16 5 -5 -4 -9 -1 -9 4 0 6 6 11 14 11 15 0 15 9 2 48 -4 12 -12 20 -17
17 -5 -4 -9 0 -9 7 0 9 -3 9 -10 -2 -9 -13 -10 -13 -10 0 0 13 -1 13 -10 0 -8
-12 -10 -12 -10 5 0 12 -3 16 -8 9 -4 -6 -17 -13 -29 -16 -17 -5 -23 -2 -23
10 0 11 -3 13 -8 6 -9 -14 -42 -26 -42 -15 0 4 -7 8 -15 8 -8 0 -15 -4 -15 -8
0 -4 -9 -6 -20 -4 -11 2 -18 0 -15 -6 4 -5 0 -9 -7 -9 -8 0 -20 -9 -28 -20
-10 -14 -16 -16 -22 -7 -6 9 -8 9 -8 -1 0 -7 -4 -10 -10 -7 -5 3 -10 1 -10 -4
0 -6 -6 -11 -13 -11 -7 0 -23 -13 -37 -30 -14 -16 -31 -30 -38 -30 -8 0 -10
-5 -6 -12 5 -7 2 -9 -9 -5 -12 4 -14 2 -10 -10 5 -13 2 -15 -11 -10 -9 4 -15
3 -12 -1 2 -4 1 -14 -3 -21 -7 -11 -13 -11 -27 -1 -18 11 -18 11 1 6 18 -5 18
-5 4 6 -19 16 -46 64 -30 54 6 -4 11 -2 11 3 0 6 -5 11 -11 11 -5 0 -7 5 -4
10 3 6 2 10 -2 10 -5 0 -9 13 -9 30 -1 16 -4 37 -8 46 -5 14 -9 14 -23 3 -9
-8 -14 -9 -10 -3 4 8 -5 13 -27 16 -19 2 -32 0 -30 -4 3 -4 1 -8 -5 -8 -5 0
-12 6 -14 13 -4 8 -6 8 -6 -2 -1 -11 -5 -10 -17 5 -8 10 -12 13 -8 5z"/>
<path d="M6681 5834 c-1 -7 -25 -11 -61 -12 -35 0 -68 -6 -77 -14 -12 -9 -15
-9 -9 -1 5 9 2 11 -8 7 -9 -3 -16 -10 -16 -16 0 -5 -4 -6 -10 -3 -5 3 -10 1
-10 -5 0 -6 -6 -10 -12 -9 -27 3 -39 -1 -32 -13 5 -7 3 -8 -5 -4 -7 5 -19 0
-27 -10 -9 -11 -12 -12 -8 -4 4 8 -10 -1 -32 -20 -21 -19 -41 -37 -44 -39 -3
-2 4 -1 15 3 16 6 18 5 7 -6 -7 -7 -18 -13 -25 -13 -7 0 -11 -8 -11 -18 2 -15
-1 -16 -15 -5 -9 7 -13 8 -8 3 4 -4 0 -19 -9 -33 -9 -13 -12 -22 -6 -18 6 3 5
-4 -1 -18 -7 -13 -14 -23 -18 -21 -3 2 -6 -2 -6 -10 0 -8 5 -12 11 -9 6 3 2
-2 -8 -10 -11 -9 -16 -16 -12 -16 5 0 2 -8 -5 -17 -8 -10 -9 -14 -2 -10 8 5
11 0 10 -13 -1 -11 -5 -20 -10 -20 -4 0 -5 -4 -2 -10 3 -5 1 -10 -6 -10 -8 0
-8 -4 1 -15 7 -8 8 -15 3 -15 -6 0 -8 -18 -6 -41 3 -27 1 -39 -6 -34 -8 4 -8
-2 -1 -20 7 -17 7 -24 0 -20 -6 3 -10 1 -10 -5 0 -6 -6 -8 -12 -5 -7 4 -5 0 5
-8 19 -16 24 -32 6 -21 -8 4 -8 1 -1 -13 7 -12 7 -25 1 -36 -7 -11 -6 -17 1
-17 5 0 10 -5 10 -11 0 -5 -5 -7 -11 -3 -8 4 -8 1 -1 -12 5 -11 7 -25 4 -33
-3 -10 0 -11 9 -5 12 7 12 5 0 -9 -12 -15 -9 -21 11 -18 4 0 4 -10 -1 -22 -5
-14 -5 -30 0 -40 7 -12 6 -17 -3 -17 -9 0 -9 -3 2 -10 11 -7 11 -10 2 -10 -7
0 -10 -5 -7 -10 4 -6 12 -7 18 -3 7 4 6 0 -2 -10 -9 -11 -10 -17 -2 -17 6 0
11 -13 11 -30 0 -16 5 -30 10 -30 6 0 10 -7 10 -15 0 -8 6 -15 13 -15 8 0 7
-4 -3 -10 -11 -7 -11 -10 -2 -10 7 0 10 -4 7 -10 -3 -5 -1 -10 5 -10 7 0 10
-6 7 -13 -3 -7 4 -19 15 -26 11 -7 17 -19 14 -26 -3 -8 0 -14 7 -12 7 1 11 -4
10 -10 -2 -7 0 -12 5 -12 20 3 32 -2 29 -13 -1 -8 6 -12 17 -10 11 2 15 -1 11
-7 -3 -6 1 -11 9 -11 9 0 16 -4 16 -10 0 -5 7 -10 15 -10 8 0 15 -4 15 -10 0
-5 7 -6 17 -3 12 5 14 3 8 -7 -6 -9 -4 -11 4 -6 7 5 21 0 33 -11 12 -10 18
-12 13 -4 -6 10 -4 12 6 5 19 -11 33 -14 107 -17 34 -2 67 0 74 4 6 4 24 3 39
-1 16 -5 31 -5 34 0 3 5 18 5 33 2 45 -12 87 -8 84 7 -3 12 0 12 12 2 9 -7 23
-11 31 -7 8 3 15 0 15 -7 0 -8 2 -9 8 -1 4 6 15 10 25 8 9 -1 15 2 11 7 -6 10
-3 10 36 13 14 0 31 5 39 10 10 7 12 6 6 -4 -5 -8 -4 -11 2 -7 19 12 15 96 -6
118 -12 13 -21 17 -26 10 -3 -6 -14 -11 -23 -11 -15 0 -15 2 -2 10 11 7 6 8
-17 6 -18 -3 -36 -7 -41 -10 -4 -2 -14 -1 -22 4 -8 5 -21 5 -31 -1 -10 -5 -20
-5 -23 -1 -3 5 -22 7 -43 5 -21 -2 -42 -4 -48 -5 -5 0 -19 3 -29 8 -12 4 -17
4 -13 -3 3 -5 0 -10 -8 -10 -8 0 -12 4 -9 9 3 4 -1 9 -8 9 -7 1 -20 2 -28 3
-8 1 -20 -2 -27 -7 -7 -5 -15 -1 -22 10 -6 10 -11 12 -11 6 0 -9 -7 -10 -25
-3 -14 5 -25 6 -25 2 0 -4 -5 1 -11 11 -6 9 -15 15 -20 11 -5 -3 -9 -2 -8 3 3
20 -2 34 -11 28 -5 -3 -10 1 -10 11 0 14 -2 15 -17 3 -10 -7 -15 -10 -11 -5
10 12 -11 48 -24 40 -7 -4 -8 1 -3 16 4 14 3 20 -3 16 -5 -3 -13 1 -16 10 -4
10 -2 13 7 8 6 -4 4 2 -6 13 -9 11 -14 23 -10 26 3 4 2 7 -4 7 -6 0 -14 7 -17
16 -3 8 -2 12 4 9 6 -3 10 -1 10 4 0 6 -5 11 -10 11 -7 0 -7 6 -1 18 7 13 6
23 -1 30 -9 9 -9 12 2 12 9 0 8 5 -5 20 -16 18 -16 20 -1 26 13 5 14 9 5 20
-9 11 -8 14 1 14 9 0 9 4 2 13 -7 8 -7 18 -2 27 5 9 5 19 -2 27 -8 9 -7 13 2
13 9 0 7 6 -5 20 -16 18 -16 20 -1 26 13 5 14 9 5 20 -9 11 -8 14 1 14 9 0 8
6 -4 19 -16 18 -16 20 0 29 11 6 13 11 5 16 -7 5 -1 16 17 32 15 13 23 24 17
23 -32 -4 -40 2 -21 16 14 11 16 15 5 15 -12 0 -12 2 0 9 7 5 10 14 7 20 -4 6
0 11 8 11 9 0 16 5 16 11 0 5 -5 7 -11 4 -6 -4 -5 2 2 13 7 12 17 18 21 16 4
-3 8 2 8 10 0 9 7 16 16 16 10 0 14 6 11 14 -8 21 16 39 33 23 8 -8 11 -8 7
-1 -4 7 0 15 9 18 8 3 13 2 10 -3 -3 -4 6 -6 19 -3 14 2 23 8 20 12 -2 4 9 7
26 8 19 0 27 -3 23 -10 -5 -7 -2 -8 7 -2 8 5 28 9 44 10 17 1 46 2 65 3 19 1
51 0 70 -3 19 -2 54 0 76 4 23 4 49 3 58 -2 11 -6 22 -6 29 0 7 5 19 8 28 7
11 -2 16 3 14 14 -1 9 3 19 9 23 8 5 8 8 0 8 -6 0 -9 12 -6 30 4 28 -18 66
-32 53 -3 -4 -6 -1 -6 4 0 12 -18 12 -37 0 -6 -4 -15 -2 -19 4 -5 8 -3 9 6 4
9 -6 11 -4 5 4 -5 9 -10 10 -18 2 -15 -15 -30 -14 -21 2 6 9 4 9 -8 -1 -12
-10 -18 -10 -23 -2 -4 7 -24 10 -46 8 -22 -2 -39 1 -39 7 0 5 -5 3 -10 -5 -9
-13 -10 -13 -10 0 0 13 -1 13 -10 0 -8 -12 -10 -12 -10 5 0 12 -3 16 -8 9 -10
-15 -72 -24 -72 -10 0 6 -5 4 -10 -4 -9 -13 -10 -13 -10 0 0 13 -2 13 -9 1 -7
-11 -10 -10 -14 5 -2 10 -5 14 -6 8z m169 -1074 c0 -5 -5 -10 -11 -10 -5 0 -7
5 -4 10 3 6 8 10 11 10 2 0 4 -4 4 -10z m50 4 c0 -8 -19 -13 -24 -6 -3 5 1 9
9 9 8 0 15 -2 15 -3z m110 -4 c0 -5 -5 -10 -11 -10 -5 0 -7 5 -4 10 3 6 8 10
11 10 2 0 4 -4 4 -10z"/>
<path d="M7698 5829 c-5 -12 -16 -15 -38 -13 -17 2 -29 0 -25 -5 6 -11 -14 -9
-34 3 -9 6 -12 5 -8 -1 4 -6 0 -14 -9 -17 -9 -3 -12 -2 -8 5 3 6 -3 5 -14 -2
-12 -7 -18 -17 -15 -22 3 -5 -4 -6 -15 -3 -14 5 -27 1 -41 -13 -10 -10 -22
-17 -25 -14 -3 3 -9 -3 -13 -13 -3 -10 -17 -29 -30 -42 -13 -12 -21 -27 -18
-32 3 -6 -1 -10 -9 -10 -10 0 -16 -9 -16 -25 0 -14 -4 -25 -10 -25 -6 0 -9 -6
-7 -12 1 -7 -3 -12 -9 -11 -5 1 -9 -12 -8 -28 1 -16 -2 -32 -7 -35 -5 -3 -7
-10 -3 -15 3 -5 0 -17 -8 -26 -9 -12 -9 -15 0 -9 6 4 12 3 12 -2 0 -6 -8 -13
-17 -16 -12 -5 -13 -10 -5 -18 8 -8 8 -17 1 -31 -8 -14 -8 -18 0 -13 6 4 11 2
11 -3 0 -6 -5 -11 -11 -11 -8 0 -7 -6 2 -17 8 -9 9 -14 3 -10 -6 3 -11 0 -11
-8 0 -8 4 -12 9 -9 5 3 6 -7 2 -22 -5 -21 -4 -25 7 -20 8 4 5 0 -5 -8 -12 -10
-15 -16 -7 -16 10 0 9 -7 -4 -26 -9 -15 -13 -24 -7 -20 5 3 12 -1 16 -9 3 -8
2 -15 -2 -15 -4 0 -8 -9 -8 -20 0 -11 4 -20 8 -20 4 0 8 -5 8 -11 0 -5 -3 -8
-8 -6 -4 3 -7 -8 -7 -23 -1 -16 3 -26 7 -23 5 2 6 -8 2 -23 -4 -17 -3 -25 3
-21 5 3 10 0 10 -7 0 -8 -7 -12 -15 -8 -11 4 -11 -1 3 -21 14 -21 14 -27 4
-28 -8 0 -5 -4 6 -9 12 -5 14 -9 6 -9 -11 -1 -10 -5 5 -17 10 -8 13 -13 7 -9
-8 4 -13 0 -13 -10 0 -10 5 -13 13 -9 7 5 6 0 -3 -11 -9 -11 -10 -16 -2 -11 8
4 13 1 14 -11 0 -10 2 -23 2 -30 1 -7 10 -20 21 -28 11 -9 13 -13 5 -9 -12 7
-13 5 -3 -8 7 -8 9 -19 5 -23 -4 -5 -1 -5 6 -1 7 4 12 1 12 -9 0 -9 5 -13 10
-10 6 3 10 -1 10 -10 0 -9 9 -19 20 -22 11 -3 17 -9 14 -14 -3 -5 2 -9 11 -9
9 0 13 -4 10 -10 -3 -5 1 -10 10 -10 9 0 14 -4 11 -8 -2 -4 4 -9 15 -9 10 -1
26 -9 34 -17 9 -8 23 -12 32 -9 12 5 14 3 8 -7 -6 -10 -3 -12 13 -8 12 4 22 2
22 -4 0 -6 7 -8 15 -4 8 3 15 2 15 -3 0 -15 35 -7 42 9 6 13 7 13 7 0 1 -23
143 -22 153 0 6 13 7 13 7 0 1 -23 143 -22 153 0 5 12 7 12 7 -2 1 -13 7 -17
24 -14 12 3 26 5 30 5 5 1 6 4 4 9 -7 11 45 12 66 0 17 -9 17 -7 6 14 -12 23
-12 23 10 4 13 -12 21 -14 21 -7 0 7 4 10 9 7 5 -3 22 1 37 9 16 8 22 15 14
15 -12 1 -11 3 3 11 9 5 17 15 17 22 0 7 -4 6 -11 -3 -8 -12 -10 -12 -8 5 2
35 -1 46 -11 40 -5 -3 -10 0 -10 9 0 15 -16 16 -39 2 -11 -7 -13 -5 -8 7 3 10
2 17 -3 17 -6 0 -10 -5 -10 -11 0 -8 -4 -8 -13 -1 -8 7 -18 7 -27 2 -8 -5 -19
-5 -25 0 -6 5 -17 5 -25 -2 -12 -8 -11 -8 5 -3 16 5 17 4 8 -6 -10 -10 -16 -9
-30 2 -10 9 -25 15 -33 14 -8 -1 -21 -3 -28 -3 -8 -1 -10 -7 -6 -14 5 -8 1 -7
-10 2 -22 18 -53 23 -61 10 -4 -7 -13 -6 -26 1 -12 6 -23 8 -27 5 -3 -3 0 -6
6 -6 7 0 12 -5 12 -12 0 -6 -7 -4 -18 5 -10 10 -22 14 -25 10 -4 -3 -7 -1 -7
6 0 7 -5 9 -12 4 -19 -11 -38 -13 -38 -3 0 10 -53 5 -72 -6 -10 -6 -10 -5 -1
7 9 11 7 14 -13 16 -46 4 -52 6 -47 20 3 7 -2 13 -11 13 -9 0 -16 7 -16 16 0
9 -9 18 -20 21 -11 3 -17 9 -14 14 3 5 -1 9 -9 9 -7 0 -14 7 -15 15 -1 8 -3
22 -4 30 -1 8 -5 15 -10 15 -5 0 -4 9 2 19 7 14 7 22 -2 27 -7 5 -8 3 -3 -6 5
-8 4 -11 -3 -6 -6 4 -9 13 -5 21 3 8 0 15 -7 15 -6 0 -8 5 -4 12 12 19 12 48
1 48 -5 0 -4 7 3 15 8 10 9 15 2 15 -6 0 -9 6 -6 13 3 9 23 14 58 14 29 0 59
4 66 8 9 6 11 4 5 -6 -8 -12 -6 -12 8 0 14 11 17 11 17 0 0 -11 2 -11 10 1 8
12 10 12 10 -5 0 -12 3 -16 8 -9 4 6 17 13 30 16 16 5 22 2 22 -10 0 -14 2
-15 9 -3 10 15 41 24 41 12 0 -7 22 -6 83 2 15 3 27 0 27 -7 0 -6 5 -4 10 4 8
12 10 12 11 -5 0 -11 3 -14 6 -7 2 6 20 12 39 12 23 0 33 4 28 11 -4 7 1 7 16
-1 12 -7 20 -8 16 -2 -7 13 19 23 39 16 8 -4 15 -1 15 5 0 6 7 11 16 11 8 0
12 4 9 10 -3 6 1 7 10 4 9 -4 22 1 31 12 9 11 13 12 9 4 -4 -10 -2 -9 8 2 8
10 18 14 22 10 5 -4 5 1 2 11 -4 11 -3 16 3 12 6 -3 10 -1 10 5 0 6 4 9 9 6 5
-4 8 5 6 19 -1 18 1 22 9 16 8 -7 12 -3 13 12 1 12 8 32 15 45 10 19 10 25 -2
32 -13 8 -12 10 3 10 20 0 21 4 6 32 -10 18 -9 20 7 14 15 -6 13 -2 -6 19 -20
21 -21 25 -6 19 16 -6 18 -4 11 12 -4 10 -7 29 -6 42 0 16 -3 21 -12 16 -7 -5
-6 0 3 11 14 17 13 18 -2 12 -15 -5 -16 -2 -8 18 8 20 6 25 -6 25 -14 0 -14 3
-4 15 10 12 9 15 -4 15 -10 0 -15 4 -12 9 8 13 -17 61 -32 61 -8 0 -10 5 -6
12 5 7 2 9 -9 5 -11 -4 -14 -2 -10 9 3 8 -1 14 -10 14 -9 0 -20 6 -24 14 -14
24 -48 36 -63 23 -10 -10 -11 -9 -5 2 6 11 4 13 -9 8 -14 -6 -17 -3 -12 8 4
12 2 13 -13 6 -12 -7 -21 -7 -29 1 -5 5 -29 9 -51 6 -24 -2 -41 1 -41 7 0 5
-5 3 -10 -5 -9 -13 -10 -13 -10 0 0 13 -1 13 -10 0 -8 -12 -10 -12 -10 5 0 12
-3 16 -8 9 -10 -15 -72 -24 -72 -10 0 6 -5 4 -10 -4 -9 -13 -10 -13 -10 0 0
13 -1 13 -10 0 -8 -12 -10 -12 -10 5 0 12 -3 16 -8 9 -13 -20 -51 -23 -54 -5
-3 15 -4 15 -10 0z m151 -149 c12 6 21 7 21 1 0 -5 -6 -12 -12 -14 -10 -4 -10
-6 -1 -6 6 -1 15 4 18 9 3 6 11 10 16 10 6 0 8 -4 5 -9 -4 -5 3 -7 14 -4 13 3
20 0 20 -8 0 -10 3 -10 11 -2 8 8 19 6 42 -7 17 -11 34 -17 39 -14 4 3 8 -2 8
-10 0 -9 5 -16 11 -16 5 0 7 -5 3 -12 -5 -8 0 -9 16 -5 16 4 20 3 12 -5 -8 -8
-7 -15 3 -24 8 -8 12 -23 10 -34 -2 -11 0 -20 5 -20 5 0 7 -7 4 -15 -4 -8 -11
-12 -17 -8 -6 3 -7 1 -3 -5 4 -7 15 -12 24 -12 14 0 14 -2 3 -9 -8 -5 -12 -19
-9 -35 3 -14 1 -26 -5 -26 -6 0 -7 -3 -4 -7 4 -3 -1 -12 -11 -20 -9 -8 -11
-12 -4 -8 21 11 13 -4 -21 -37 -31 -31 -31 -31 -2 -8 l30 25 -28 -31 c-27 -30
-48 -37 -63 -21 -4 4 -19 0 -32 -9 -22 -15 -24 -15 -19 -1 4 11 2 14 -8 10 -8
-3 -12 -10 -8 -17 3 -6 -2 -3 -13 6 -13 12 -24 14 -36 7 -11 -6 -19 -6 -23 2
-5 7 -14 4 -28 -8 -12 -10 -17 -12 -12 -4 6 11 4 13 -7 8 -9 -3 -19 -3 -22 1
-10 9 -37 11 -31 2 3 -5 1 -11 -5 -15 -5 -3 -10 -2 -10 3 0 6 -7 12 -15 16 -8
3 -14 2 -14 -2 3 -19 -2 -25 -11 -12 -7 11 -10 12 -10 2 0 -10 -4 -10 -16 2
-8 9 -21 16 -27 15 -7 0 -7 -3 2 -6 11 -4 11 -7 0 -13 -8 -5 -18 -2 -25 8 -10
14 -15 15 -25 5 -15 -15 -33 -17 -25 -4 4 5 -4 7 -16 3 l-23 -5 20 22 c12 14
14 21 6 19 -7 -2 -16 3 -18 10 -3 6 0 12 6 12 7 0 9 10 5 25 -4 17 -2 25 7 25
9 1 8 4 -4 11 -15 9 -16 13 -5 26 15 18 20 45 7 37 -16 -10 -10 8 9 23 10 9
11 11 2 7 -10 -5 -8 0 4 15 20 22 20 22 0 16 -16 -5 -16 -4 4 11 12 9 22 23
22 31 0 8 5 11 10 8 6 -3 10 1 10 10 0 9 5 13 10 10 6 -3 10 1 10 10 0 11 5
15 16 11 8 -3 12 -2 9 4 -3 6 4 10 17 10 19 0 20 2 8 11 -11 8 -7 9 18 4 19
-4 32 -3 32 4 0 5 9 8 20 6 11 -2 20 0 20 5 0 13 33 18 47 8 7 -6 20 -5 32 2z
m-239 -394 c0 -3 -4 -8 -10 -11 -5 -3 -10 -1 -10 4 0 6 5 11 10 11 6 0 10 -2
10 -4z m340 -526 c0 -5 -2 -10 -4 -10 -3 0 -8 5 -11 10 -3 6 -1 10 4 10 6 0
11 -4 11 -10z m80 0 c0 -5 -2 -10 -4 -10 -3 0 -8 5 -11 10 -3 6 -1 10 4 10 6
0 11 -4 11 -10z"/>
<path d="M9497 5826 c-5 -12 -14 -17 -27 -13 -11 3 -23 1 -26 -4 -3 -5 -10 -7
-15 -4 -5 4 -9 1 -9 -5 0 -6 -5 -8 -11 -5 -6 4 -17 -1 -25 -11 -15 -18 -15
-18 -9 0 6 19 5 19 -15 1 -11 -10 -20 -14 -20 -10 0 5 -6 1 -13 -10 -9 -11
-19 -15 -27 -10 -8 5 -11 4 -7 -2 7 -10 -27 -43 -44 -43 -8 0 -8 -4 1 -15 10
-12 8 -13 -10 -10 -19 4 -20 2 -8 -12 9 -12 9 -15 1 -9 -8 4 -13 1 -13 -9 0
-10 -5 -13 -12 -9 -9 5 -9 2 1 -9 9 -11 10 -17 2 -17 -6 0 -11 -9 -11 -21 0
-13 -4 -18 -12 -13 -7 4 -8 3 -4 -5 4 -6 13 -8 19 -4 7 4 6 0 -2 -10 -7 -10
-9 -17 -3 -17 11 0 11 -18 -1 -37 -5 -7 -4 -13 2 -13 11 0 9 -19 -3 -39 -7
-11 -6 -12 5 -6 12 8 12 6 0 -8 -11 -14 -11 -17 0 -17 11 0 11 -2 -1 -10 -11
-7 -11 -10 -2 -10 10 0 10 -5 2 -20 -8 -15 -8 -20 1 -20 8 0 8 -4 -1 -15 -10
-12 -9 -16 4 -21 12 -5 13 -10 5 -25 -6 -11 -6 -18 0 -17 5 2 10 -1 12 -7 1
-5 9 -16 16 -23 7 -8 10 -19 6 -25 -4 -7 -1 -7 9 1 14 11 16 10 11 -7 -3 -13
-1 -21 7 -21 6 0 26 -11 43 -24 38 -28 71 -41 61 -24 -4 6 3 4 17 -5 13 -9 40
-17 61 -17 20 0 40 -4 43 -10 3 -5 12 -10 18 -10 7 0 6 4 -3 11 -11 7 -6 9 22
7 20 -1 40 1 43 4 4 4 17 3 30 -2 13 -5 25 -6 28 -4 11 11 57 11 57 0 0 -6 4
-5 9 2 7 11 9 11 14 -2 4 -9 12 -16 19 -16 10 0 10 2 0 9 -10 6 -9 10 7 14 12
3 19 1 16 -3 -3 -5 -1 -11 5 -15 5 -3 10 -1 10 4 0 6 4 11 10 11 5 0 6 -7 3
-17 -4 -11 -3 -14 5 -9 7 4 12 1 13 -6 0 -7 4 -4 9 7 5 11 9 14 9 8 1 -7 10
-13 22 -13 11 0 17 -4 14 -10 -3 -5 1 -10 9 -10 8 0 17 -9 21 -19 3 -11 13
-22 22 -25 12 -5 13 -9 3 -21 -10 -12 -9 -16 4 -21 15 -6 15 -8 -1 -21 -10 -8
-13 -12 -7 -9 15 7 27 -21 12 -30 -7 -4 -6 -9 3 -15 11 -7 11 -9 1 -9 -7 0
-11 -4 -7 -9 3 -5 1 -13 -5 -16 -8 -5 -7 -12 2 -23 10 -12 10 -14 1 -8 -7 4
-14 2 -14 -3 -1 -6 -2 -15 -3 -20 0 -5 -5 -13 -10 -18 -5 -5 -6 -2 -1 6 5 9 4
12 -3 7 -7 -4 -12 -14 -12 -22 0 -8 -4 -12 -10 -9 -5 3 -10 1 -10 -5 0 -7 -7
-9 -16 -6 -8 3 -13 2 -10 -3 3 -5 -1 -12 -10 -15 -10 -4 -13 -2 -8 7 4 6 -3 3
-16 -8 -13 -11 -20 -15 -17 -8 5 8 -4 10 -29 8 -20 -2 -38 -6 -41 -9 -3 -3
-13 -1 -22 4 -10 5 -23 5 -31 0 -9 -5 -19 -5 -26 1 -8 7 -15 6 -20 -2 -5 -8
-3 -9 6 -4 8 5 11 4 7 -2 -3 -5 -16 -9 -29 -7 -13 1 -27 3 -31 3 -5 1 -6 5 -3
10 7 11 -12 9 -39 -6 -23 -12 -48 -6 -39 9 4 5 -5 3 -18 -6 -21 -14 -27 -14
-37 -3 -11 14 -105 17 -118 3 -3 -3 -12 -1 -19 5 -8 7 -14 7 -19 -1 -3 -5 -11
-10 -16 -10 -6 0 -8 4 -5 8 3 5 -1 9 -8 9 -8 0 -12 -7 -8 -15 3 -9 1 -13 -5
-9 -6 4 -17 -1 -24 -10 -10 -12 -10 -14 -1 -9 15 9 16 -6 1 -21 -14 -14 -2
-36 14 -26 7 4 5 -2 -3 -12 -12 -15 -12 -17 -1 -10 11 6 13 4 8 -9 -5 -14 -3
-17 8 -12 8 3 15 0 15 -7 0 -8 4 -6 10 3 8 13 10 12 10 -4 0 -19 0 -19 13 -1
10 12 16 14 21 7 4 -7 12 -12 17 -12 6 0 7 5 3 11 -3 6 5 3 20 -6 15 -10 29
-15 32 -12 3 3 19 1 35 -3 17 -5 31 -5 35 1 3 5 10 7 15 3 14 -8 137 -11 151
-3 6 4 24 3 39 -1 16 -5 31 -5 34 0 3 5 18 5 33 2 47 -12 87 -8 84 8 -3 12 -1
13 9 3 7 -7 22 -13 33 -13 17 0 18 2 6 10 -9 6 -10 10 -3 10 6 0 15 -5 18 -10
5 -8 12 -7 22 2 9 7 19 12 22 11 3 0 5 3 3 8 -1 6 7 5 18 -1 15 -8 20 -8 18 0
-2 7 8 18 22 27 23 14 24 14 6 -1 -11 -9 -15 -16 -9 -16 6 0 16 7 23 15 7 8
16 12 21 9 5 -3 6 3 2 12 -4 11 -2 15 4 11 15 -9 36 19 27 35 -5 8 -1 8 11 -2
11 -9 16 -10 11 -2 -4 7 -2 12 4 12 6 0 8 5 5 10 -3 6 -2 10 3 10 16 0 24 33
10 43 -10 6 -9 7 4 4 20 -7 34 23 16 34 -9 6 -9 11 1 23 11 13 11 16 0 16 -11
0 -11 2 1 10 13 8 12 10 -4 10 -20 0 -20 0 0 15 16 12 17 16 5 24 -12 8 -12
12 -2 25 10 12 10 16 2 16 -7 0 -10 4 -6 9 3 5 1 12 -4 16 -6 3 -8 12 -5 20 4
8 10 13 14 10 5 -3 7 3 5 12 -2 10 -4 22 -4 26 -1 5 -6 5 -12 1 -8 -5 -8 -1 0
14 9 17 7 23 -11 36 -12 9 -17 16 -10 16 6 0 12 5 12 11 0 5 -4 7 -10 4 -6 -4
-10 6 -11 22 0 24 -2 25 -8 8 -7 -17 -8 -17 -15 8 -3 15 -11 25 -16 22 -6 -3
-10 1 -10 9 0 9 -9 16 -20 16 -11 0 -20 5 -20 11 0 8 -6 7 -17 -2 -13 -11 -15
-11 -9 -1 5 9 1 15 -13 19 -11 3 -19 8 -17 12 6 9 -73 16 -164 13 -73 -2 -90
0 -83 12 3 6 1 6 -8 -1 -7 -7 -19 -13 -27 -13 -8 0 -10 5 -6 13 6 9 5 9 -7 0
-14 -12 -55 -10 -67 2 -3 2 -11 0 -19 -7 -8 -6 -13 -7 -11 -2 2 5 -1 9 -7 9
-5 0 -9 -4 -7 -10 1 -5 -4 -1 -13 9 -8 11 -18 17 -21 13 -4 -4 -14 -1 -22 6
-13 10 -14 9 -8 -1 7 -11 4 -12 -12 -3 -12 6 -24 16 -28 23 -5 7 -3 8 6 3 9
-6 11 -4 6 4 -5 7 -14 10 -22 7 -7 -3 -16 0 -20 6 -4 6 -3 8 4 4 6 -3 13 -2
17 4 3 5 1 10 -6 10 -8 0 -9 10 -5 30 3 17 2 29 -3 26 -4 -3 -5 13 -1 35 4 23
6 56 4 75 -2 22 1 33 9 31 7 -1 11 6 11 15 -1 10 1 17 5 16 20 -2 31 3 25 14
-5 8 -2 9 10 5 10 -4 19 -1 22 8 4 8 10 15 16 15 5 0 6 -5 2 -11 -5 -8 -1 -8
14 0 28 15 45 14 36 -1 -6 -10 -4 -10 7 0 17 15 43 16 33 0 -5 -8 -3 -8 7 -2
8 5 28 9 44 10 86 3 104 3 145 2 25 -1 61 -1 80 0 73 2 90 0 83 -12 -3 -6 -1
-6 8 2 16 15 43 16 33 1 -3 -6 5 -3 20 6 17 11 26 13 26 6 0 -7 5 -9 10 -6 6
4 8 11 5 16 -4 5 1 12 9 15 9 3 16 10 16 15 0 4 -8 5 -17 2 -16 -6 -16 -5 -4
10 9 12 10 17 2 17 -7 0 -9 5 -6 10 4 6 11 8 16 5 5 -3 6 1 3 9 -3 8 -14 18
-25 21 -11 4 -16 11 -13 18 4 7 4 9 -1 5 -4 -4 -15 -2 -23 5 -13 9 -14 9 -8 0
5 -9 2 -11 -8 -7 -9 3 -13 11 -9 18 3 6 -4 2 -17 -9 -22 -19 -23 -19 -16 -1 5
14 3 16 -6 9 -7 -6 -22 -8 -33 -6 -11 2 -30 5 -42 6 -13 0 -23 6 -23 12 0 5
-5 3 -10 -5 -8 -12 -10 -12 -10 5 0 12 -3 16 -8 9 -10 -15 -72 -24 -72 -10 0
6 -5 4 -10 -4 -9 -13 -10 -13 -10 0 0 13 -1 13 -10 0 -8 -12 -10 -12 -10 5 0
12 -3 16 -8 9 -10 -15 -72 -24 -72 -10 0 6 -5 4 -10 -4 -9 -13 -10 -13 -10 0
0 13 -1 13 -10 0 -8 -12 -10 -12 -10 5 0 12 -3 16 -8 9 -13 -20 -51 -23 -54
-5 -3 14 -5 13 -11 -3z m-172 -634 c-3 -3 -11 0 -18 7 -9 10 -8 11 6 5 10 -3
15 -9 12 -12z m5 -432 c0 -5 -5 -10 -11 -10 -5 0 -7 5 -4 10 3 6 8 10 11 10 2
0 4 -4 4 -10z m60 0 c0 -5 -2 -10 -4 -10 -3 0 -8 5 -11 10 -3 6 -1 10 4 10 6
0 11 -4 11 -10z m340 0 c0 -5 -5 -10 -11 -10 -5 0 -7 5 -4 10 3 6 8 10 11 10
2 0 4 -4 4 -10z"/>
<path d="M4332 5821 c-7 -4 -24 -6 -38 -3 -15 3 -24 0 -24 -9 0 -7 -3 -10 -6
-6 -3 3 -17 2 -31 -4 -16 -6 -22 -5 -18 1 3 6 -1 7 -9 4 -9 -3 -16 -10 -16
-16 0 -5 -4 -7 -9 -3 -5 3 -22 -6 -37 -20 -21 -19 -23 -24 -8 -19 19 7 19 7 0
-15 -20 -22 -20 -22 0 -15 15 5 17 4 7 -6 -12 -13 -7 -40 9 -51 5 -3 27 -3 48
1 21 4 45 3 53 -1 8 -5 35 -5 60 0 25 4 52 4 60 0 8 -5 35 -5 61 0 31 6 43 5
39 -2 -4 -7 1 -8 13 -3 25 11 64 11 91 2 12 -4 30 -3 40 3 13 7 24 4 40 -9 12
-10 20 -20 18 -22 -3 -3 2 -5 10 -5 8 0 12 5 8 10 -3 5 4 4 16 -2 11 -7 21
-19 21 -29 0 -15 2 -15 10 -2 8 13 10 12 10 -3 0 -10 4 -15 10 -12 6 4 7 -1 3
-11 -5 -12 -3 -15 6 -9 10 6 11 3 1 -15 -7 -13 -8 -20 -2 -16 6 3 13 2 17 -4
3 -5 2 -10 -4 -10 -6 0 -6 -11 0 -32 6 -18 11 -37 12 -43 2 -5 6 -15 10 -21 3
-6 4 -14 0 -18 -9 -9 -10 -56 -1 -56 5 0 3 -9 -4 -19 -9 -15 -17 -17 -36 -10
-17 7 -29 6 -40 -3 -18 -15 -22 -15 -33 4 -6 8 -12 9 -16 3 -10 -13 -43 -16
-43 -4 0 5 -5 9 -11 9 -5 0 -8 -4 -5 -8 2 -4 -4 -8 -14 -8 -10 0 -16 4 -14 8
8 12 -11 9 -24 -4 -9 -9 -12 -9 -12 0 0 7 -5 12 -11 12 -5 0 -7 -5 -3 -11 4
-7 -1 -7 -15 1 -17 9 -26 9 -37 -1 -10 -8 -14 -8 -14 0 0 6 -5 11 -11 11 -5 0
-8 -4 -5 -8 2 -4 -4 -8 -14 -8 -10 0 -16 4 -14 8 3 4 1 8 -5 8 -5 0 -13 -5
-16 -10 -9 -14 -27 -2 -19 13 3 7 0 5 -8 -4 -7 -9 -19 -14 -27 -11 -10 3 -11
0 -5 -9 6 -11 3 -10 -11 1 -10 8 -16 10 -12 4 4 -7 0 -15 -9 -18 -12 -5 -15
-2 -10 11 6 15 5 16 -5 6 -7 -7 -24 -13 -37 -13 -13 0 -20 -4 -17 -10 9 -14
-9 -12 -24 3 -10 10 -11 8 -5 -7 6 -16 5 -17 -14 -7 -19 10 -22 9 -23 -6 -1
-10 -1 -21 0 -25 0 -4 -6 -5 -14 -2 -9 4 -15 0 -15 -10 0 -17 -34 -39 -44 -28
-4 3 -4 -2 0 -11 5 -13 1 -20 -15 -24 -13 -3 -20 -11 -17 -19 3 -9 -1 -14 -12
-14 -15 0 -15 -2 -2 -10 8 -5 11 -10 5 -10 -5 0 -15 -11 -22 -25 -7 -16 -7
-23 0 -18 7 4 8 -2 3 -18 -4 -13 -8 -30 -8 -36 -1 -7 -4 -13 -8 -13 -4 0 -5
-12 -2 -26 4 -21 2 -25 -9 -20 -8 4 -5 0 5 -8 11 -9 15 -16 10 -16 -17 0 -12
-30 5 -31 13 0 12 -2 -2 -8 -17 -6 -17 -8 -3 -20 16 -14 23 -47 8 -37 -5 3 -9
-1 -9 -9 0 -8 4 -12 9 -9 4 3 8 -7 8 -21 0 -14 4 -24 9 -20 6 3 8 -4 6 -15 -2
-13 1 -20 11 -20 8 0 13 -4 10 -8 -3 -5 4 -14 14 -22 10 -8 16 -18 13 -24 -4
-5 1 -7 10 -3 9 3 19 1 23 -5 5 -7 2 -8 -7 -3 -12 8 -12 6 -1 -8 8 -9 29 -22
47 -29 19 -6 32 -15 29 -19 -2 -4 5 -5 16 -2 11 3 20 0 20 -6 0 -6 5 -11 11
-11 5 0 7 5 3 11 -4 7 1 7 16 -1 15 -8 20 -8 16 -1 -4 6 -2 11 3 11 6 0 11 -6
11 -12 0 -9 4 -8 10 2 6 10 10 11 10 3 0 -7 5 -13 11 -13 5 0 7 5 4 10 -8 13
18 8 27 -5 5 -6 11 -6 18 1 14 14 52 6 44 -10 -3 -6 4 0 15 13 19 21 21 21 21
5 0 -16 2 -17 10 -4 5 8 10 11 10 5 0 -5 5 -2 11 7 6 11 16 15 26 11 12 -5 14
-3 8 8 -8 12 -6 12 8 0 11 -9 17 -10 17 -2 0 6 5 11 11 11 5 0 7 -4 4 -10 -3
-6 1 -7 9 -4 9 3 16 13 16 22 0 13 3 12 15 -4 13 -17 14 -17 15 -1 0 9 5 17
10 17 19 0 25 3 38 19 8 9 10 10 7 2 -6 -9 -1 -9 17 3 14 9 28 14 31 11 4 -3
5 -2 2 2 -3 3 8 12 22 20 18 9 29 11 31 4 2 -6 11 -11 20 -11 14 0 14 -2 3 -9
-11 -7 -11 -9 0 -13 8 -3 14 -13 14 -24 0 -11 6 -18 14 -16 12 3 12 0 2 -12
-14 -17 -1 -29 39 -33 14 -1 39 -4 56 -6 17 -2 39 2 49 9 22 16 30 48 11 41
-7 -3 -13 1 -13 9 0 7 4 11 9 8 4 -3 8 -2 9 3 5 48 4 71 -3 67 -5 -3 -6 7 -2
22 5 21 4 25 -7 20 -8 -4 -5 0 5 8 12 10 15 16 7 16 -10 0 -9 7 4 26 9 15 13
24 7 20 -5 -3 -12 1 -16 9 -3 8 -2 15 2 15 4 0 8 9 8 20 0 11 -4 20 -8 20 -4
0 -8 5 -8 11 0 5 3 8 8 6 4 -3 7 8 7 23 1 16 -3 26 -8 23 -5 -3 -6 5 -1 18 12
37 12 113 0 122 -8 5 -6 10 3 16 12 7 12 13 3 24 -7 7 -9 16 -7 19 11 10 14
49 4 42 -6 -3 -7 5 -3 22 5 21 4 25 -7 20 -8 -4 -5 0 5 8 12 10 15 16 7 16
-10 0 -9 7 4 26 9 15 13 24 7 20 -5 -3 -12 1 -16 9 -3 8 -2 15 2 15 4 0 8 9 8
20 0 11 -4 20 -8 20 -4 0 -8 5 -8 11 0 5 3 8 8 6 4 -3 7 8 7 23 1 16 -3 26 -8
23 -5 -3 -6 5 -1 18 13 42 11 73 -5 93 -9 11 -11 16 -4 13 7 -5 9 0 6 13 -3
11 -10 20 -15 20 -5 0 -7 4 -4 9 3 5 0 20 -7 32 -14 27 -94 112 -83 89 4 -8 1
-7 -7 3 -11 14 -16 15 -20 5 -3 -8 -6 -6 -6 5 -1 10 -5 15 -11 12 -5 -3 -10
-2 -10 4 0 5 -8 8 -17 7 -10 -2 -24 4 -32 11 -10 11 -16 11 -21 3 -5 -8 -9 -7
-13 4 -4 10 -16 14 -38 11 -17 -2 -33 -6 -36 -8 -2 -3 -17 -2 -32 3 -16 4 -34
4 -41 0 -7 -4 -25 -4 -40 0 -15 4 -33 4 -40 0 -7 -4 -25 -4 -40 0 -15 4 -33 4
-40 0 -7 -4 -25 -4 -40 0 -15 4 -34 3 -45 -2 -13 -8 -16 -7 -11 1 8 13 6 14
-12 2z m267 -614 c1 7 8 10 16 7 8 -4 12 -11 8 -17 -4 -6 -1 -7 6 -3 7 5 10
15 7 25 -5 12 -2 11 9 -3 8 -11 15 -16 15 -10 0 5 25 7 55 6 30 -2 55 -8 55
-13 0 -5 5 -9 11 -9 5 0 7 5 3 12 -4 6 -3 8 4 4 6 -3 9 -15 7 -26 -2 -11 2
-20 8 -20 8 0 8 -3 -2 -9 -7 -5 -9 -11 -4 -14 11 -7 10 -68 -2 -86 -5 -9 -4
-12 1 -8 5 3 10 -3 10 -13 0 -15 -3 -17 -15 -7 -11 9 -10 4 3 -20 10 -20 12
-33 6 -33 -7 0 -8 -5 -3 -12 11 -19 13 -39 2 -32 -5 3 -9 1 -9 -5 0 -5 4 -12
10 -16 11 -7 1 -37 -17 -48 -7 -5 -11 -12 -8 -17 3 -5 -4 -7 -15 -5 -12 2 -18
0 -14 -6 4 -7 -5 -9 -25 -6 -18 3 -31 1 -31 -5 0 -6 -6 -6 -15 2 -12 10 -16 9
-21 -4 -3 -9 -10 -13 -15 -10 -5 3 -9 1 -9 -4 0 -11 -33 -23 -66 -25 -11 -1
-29 -9 -40 -17 -18 -14 -18 -14 -4 4 14 18 14 19 -6 8 -12 -6 -26 -7 -34 -2
-8 5 -21 5 -28 1 -8 -5 -32 -4 -53 0 -21 5 -44 8 -51 7 -7 -2 -12 4 -13 12 0
8 -8 14 -17 14 -11 -1 -15 5 -13 18 3 14 0 18 -11 14 -9 -3 -12 -1 -9 4 3 6 2
10 -3 10 -5 0 -14 12 -20 28 -14 38 -23 94 -14 88 4 -3 8 6 8 19 0 13 -3 22
-7 19 -4 -2 -10 0 -13 5 -4 5 2 12 13 16 13 4 17 12 13 27 -4 15 -2 19 7 13
10 -6 11 -3 1 15 -7 12 -8 20 -2 16 13 -8 36 20 27 34 -4 6 -3 10 2 9 20 -3
34 2 28 11 -3 6 2 10 12 10 15 0 16 2 3 11 -12 8 -9 10 12 6 15 -2 25 -1 23 4
-3 4 -1 10 5 14 5 3 10 1 10 -6 0 -7 7 -4 16 7 8 10 13 14 10 8 -3 -7 1 -14 9
-18 8 -3 15 -1 15 4 0 6 5 10 11 10 5 0 8 -4 5 -8 -3 -4 9 -7 27 -6 17 1 33 7
35 13 2 5 10 7 18 4 8 -3 14 0 14 7 0 6 5 8 10 5 6 -4 7 -11 4 -17 -4 -7 -2
-8 4 -4 7 4 12 15 13 24 0 14 2 13 9 -3 5 -11 9 -15 9 -8z m-394 -555 c-3 -3
-11 0 -18 7 -9 10 -8 11 6 5 10 -3 15 -9 12 -12z"/>
<path d="M4345 4790 c-3 -6 1 -7 9 -4 18 7 21 14 7 14 -6 0 -13 -4 -16 -10z"/>
<path d="M2741 5764 c0 -11 3 -14 6 -6 3 7 2 16 -1 19 -3 4 -6 -2 -5 -13z"/>
<path d="M4626 5652 c-3 -5 1 -9 9 -9 8 0 12 4 9 9 -3 4 -7 8 -9 8 -2 0 -6 -4
-9 -8z"/>
<path d="M6025 5620 c-3 -5 -1 -10 4 -10 6 0 11 5 11 10 0 6 -2 10 -4 10 -3 0
-8 -4 -11 -10z"/>
<path d="M2741 4924 c0 -11 3 -14 6 -6 3 7 2 16 -1 19 -3 4 -6 -2 -5 -13z"/>
<path d="M2741 4804 c0 -11 3 -14 6 -6 3 7 2 16 -1 19 -3 4 -6 -2 -5 -13z"/>
<path d="M9490 4769 c0 -5 5 -7 10 -4 6 3 10 8 10 11 0 2 -4 4 -10 4 -5 0 -10
-5 -10 -11z"/>
<path d="M9570 4769 c0 -5 5 -7 10 -4 6 3 10 8 10 11 0 2 -4 4 -10 4 -5 0 -10
-5 -10 -11z"/>
</g>
</svg>
